<svg width="44" height="44" viewBox="0 0 44 44" fill="none" xmlns="http://www.w3.org/2000/svg">
<path d="M0.5 20.64C0.5 16.5879 0.500558 13.585 0.731137 11.2259C0.960954 8.87471 1.41551 7.21634 2.29023 5.83799C3.19728 4.4087 4.4087 3.19728 5.83799 2.29023C7.21634 1.41551 8.87471 0.960954 11.2259 0.731137C13.585 0.500558 16.5879 0.5 20.64 0.5H23.36C27.4121 0.5 30.415 0.500558 32.7741 0.731137C35.1253 0.960954 36.7837 1.41551 38.162 2.29023C39.5913 3.19728 40.8027 4.4087 41.7098 5.83799C42.5845 7.21634 43.039 8.87471 43.2689 11.2259C43.4994 13.585 43.5 16.5879 43.5 20.64V23.36C43.5 27.4121 43.4994 30.415 43.2689 32.7741C43.039 35.1253 42.5845 36.7837 41.7098 38.162C40.8027 39.5913 39.5913 40.8027 38.162 41.7098C36.7837 42.5845 35.1253 43.039 32.7741 43.2689C30.415 43.4994 27.4121 43.5 23.36 43.5H20.64C16.5879 43.5 13.585 43.4994 11.2259 43.2689C8.87471 43.039 7.21634 42.5845 5.83799 41.7098C4.4087 40.8027 3.19728 39.5913 2.29023 38.162C1.41551 36.7837 0.960954 35.1253 0.731137 32.7741C0.500558 30.415 0.5 27.4121 0.5 23.36V20.64Z" fill="#FFF9EF"/>
<path d="M0.5 20.64C0.5 16.5879 0.500558 13.585 0.731137 11.2259C0.960954 8.87471 1.41551 7.21634 2.29023 5.83799C3.19728 4.4087 4.4087 3.19728 5.83799 2.29023C7.21634 1.41551 8.87471 0.960954 11.2259 0.731137C13.585 0.500558 16.5879 0.5 20.64 0.5H23.36C27.4121 0.5 30.415 0.500558 32.7741 0.731137C35.1253 0.960954 36.7837 1.41551 38.162 2.29023C39.5913 3.19728 40.8027 4.4087 41.7098 5.83799C42.5845 7.21634 43.039 8.87471 43.2689 11.2259C43.4994 13.585 43.5 16.5879 43.5 20.64V23.36C43.5 27.4121 43.4994 30.415 43.2689 32.7741C43.039 35.1253 42.5845 36.7837 41.7098 38.162C40.8027 39.5913 39.5913 40.8027 38.162 41.7098C36.7837 42.5845 35.1253 43.039 32.7741 43.2689C30.415 43.4994 27.4121 43.5 23.36 43.5H20.64C16.5879 43.5 13.585 43.4994 11.2259 43.2689C8.87471 43.039 7.21634 42.5845 5.83799 41.7098C4.4087 40.8027 3.19728 39.5913 2.29023 38.162C1.41551 36.7837 0.960954 35.1253 0.731137 32.7741C0.500558 30.415 0.5 27.4121 0.5 23.36V20.64Z" stroke="#E3D5CA"/>
<path d="M25 29L18 22L25 15" stroke="#302823" stroke-width="1.5" stroke-linecap="round" stroke-linejoin="round"/>
</svg>
