<svg width="25" height="21" viewBox="0 0 25 21" fill="none" xmlns="http://www.w3.org/2000/svg">
<path d="M0 13.8245C0 7.89969 4.14508 2.63323 10.2332 0L10.9456 1.51411C6.54145 4.01567 4.08031 6.91223 2.91451 11.9154L2.59067 8.62382L7.05958 11.8495C9.26166 13.4295 9.71502 14.9436 9.71502 16.5893C9.71502 19.2226 7.57772 21 5.31088 21C3.69171 21 2.52591 20.2759 1.68394 19.6176C0.518135 17.906 0 15.7994 0 13.8245ZM13.9896 13.8245C13.9896 7.89969 18.1347 2.63323 24.2228 0L25 1.51411C20.5959 4.01567 18.1347 6.91223 16.9041 11.9154L16.6451 8.62382L21.114 11.8495C23.2513 13.4295 23.7694 14.9436 23.7694 16.5893C23.7694 19.2226 21.6969 21 19.3653 21C17.7461 21 16.5803 20.2759 15.7383 19.6176C14.5725 17.906 13.9896 15.7994 13.9896 13.8245Z" fill="#E1AE9A"/>
</svg>
