<svg width="353" height="100" viewBox="0 0 353 100" fill="none" xmlns="http://www.w3.org/2000/svg">
<rect x="56.9375" y="0.4375" width="47.125" height="27.7083" rx="3.0625" fill="white" stroke="#C9C9C9" stroke-width="0.875"/>
<path d="M76.0743 11.9644H73.7949C73.6389 11.9644 73.5062 12.0796 73.4819 12.2362L72.56 18.1796C72.5417 18.2968 72.631 18.4026 72.748 18.4026H73.8362C73.9922 18.4026 74.1248 18.2874 74.1492 18.1304L74.3978 16.5274C74.4218 16.3705 74.5548 16.2553 74.7104 16.2553H75.432C76.9335 16.2553 77.8001 15.5164 78.0264 14.0524C78.1284 13.4118 78.0307 12.9086 77.7357 12.5561C77.4118 12.1691 76.8372 11.9644 76.0743 11.9644ZM76.3372 14.1351C76.2126 14.9667 75.5877 14.9667 74.9834 14.9667H74.6394L74.8807 13.4135C74.8951 13.3196 74.9751 13.2505 75.0684 13.2505H75.226C75.6377 13.2505 76.0259 13.2505 76.2266 13.4891C76.3462 13.6314 76.3829 13.8429 76.3372 14.1351Z" fill="#253B80"/>
<path d="M82.8903 14.1067H81.7987C81.7057 14.1067 81.6254 14.1758 81.6111 14.2697L81.5628 14.5802L81.4864 14.4676C81.2501 14.1189 80.7232 14.0023 80.1972 14.0023C78.991 14.0023 77.9608 14.9313 77.7602 16.2344C77.6559 16.8844 77.8042 17.5059 78.1668 17.9394C78.4994 18.338 78.9754 18.504 79.5417 18.504C80.5135 18.504 81.0525 17.8686 81.0525 17.8686L81.0038 18.177C80.9855 18.2949 81.0748 18.4007 81.1911 18.4007H82.1743C82.3307 18.4007 82.4626 18.2854 82.4873 18.1285L83.0772 14.3297C83.0959 14.2128 83.0069 14.1067 82.8903 14.1067ZM81.3688 16.2669C81.2635 16.901 80.7685 17.3267 80.1372 17.3267C79.8203 17.3267 79.567 17.2233 79.4043 17.0274C79.243 16.8329 79.1817 16.556 79.233 16.2476C79.3313 15.6189 79.8346 15.1793 80.4562 15.1793C80.7662 15.1793 81.0181 15.2841 81.1841 15.4817C81.3504 15.6813 81.4164 15.9598 81.3688 16.2669Z" fill="#253B80"/>
<path d="M88.7057 14.1072H87.6089C87.5042 14.1072 87.4059 14.16 87.3466 14.2485L85.8337 16.5144L85.1925 14.337C85.1521 14.2007 85.0285 14.1072 84.8885 14.1072H83.8106C83.6797 14.1072 83.5887 14.2373 83.6303 14.3627L84.8385 17.968L83.7026 19.5985C83.6133 19.7269 83.7033 19.9035 83.8576 19.9035H84.9532C85.0572 19.9035 85.1545 19.852 85.2135 19.7652L88.8617 14.4105C88.949 14.2824 88.8594 14.1072 88.7057 14.1072Z" fill="#253B80"/>
<path d="M92.3331 11.9644H90.0533C89.8977 11.9644 89.765 12.0796 89.7407 12.2362L88.8188 18.1796C88.8005 18.2968 88.8898 18.4026 89.0061 18.4026H90.176C90.2846 18.4026 90.3776 18.3219 90.3946 18.2121L90.6563 16.5274C90.6802 16.3705 90.8132 16.2553 90.9689 16.2553H91.6901C93.192 16.2553 94.0582 15.5164 94.2848 14.0524C94.3872 13.4118 94.2888 12.9086 93.9939 12.5561C93.6702 12.1691 93.096 11.9644 92.3331 11.9644ZM92.596 14.1351C92.4717 14.9667 91.8468 14.9667 91.2422 14.9667H90.8986L91.1402 13.4135C91.1545 13.3196 91.2339 13.2505 91.3275 13.2505H91.4852C91.8964 13.2505 92.2851 13.2505 92.4857 13.4891C92.6054 13.6314 92.6417 13.8429 92.596 14.1351Z" fill="#179BD7"/>
<path d="M99.1476 14.1067H98.0568C97.9631 14.1067 97.8834 14.1758 97.8694 14.2697L97.8211 14.5802L97.7445 14.4676C97.5081 14.1189 96.9815 14.0023 96.4556 14.0023C95.2494 14.0023 94.2195 14.9313 94.0189 16.2344C93.9149 16.8844 94.0626 17.5059 94.4252 17.9394C94.7585 18.338 95.2337 18.504 95.8 18.504C96.7719 18.504 97.3108 17.8686 97.3108 17.8686L97.2622 18.177C97.2438 18.2949 97.3332 18.4007 97.4502 18.4007H98.433C98.5887 18.4007 98.7213 18.2854 98.7457 18.1285L99.3359 14.3297C99.3539 14.2128 99.2646 14.1067 99.1476 14.1067ZM97.6261 16.2669C97.5215 16.901 97.0259 17.3267 96.3946 17.3267C96.0783 17.3267 95.8243 17.2233 95.6617 17.0274C95.5004 16.8329 95.4397 16.556 95.4904 16.2476C95.5894 15.6189 96.092 15.1793 96.7136 15.1793C97.0235 15.1793 97.2755 15.2841 97.4415 15.4817C97.6085 15.6813 97.6745 15.9598 97.6261 16.2669Z" fill="#179BD7"/>
<path d="M100.433 12.1277L99.4975 18.1799C99.4792 18.2972 99.5685 18.4029 99.6848 18.4029H100.625C100.782 18.4029 100.914 18.2877 100.938 18.1308L101.861 12.1877C101.879 12.0704 101.79 11.9644 101.674 11.9644H100.62C100.527 11.9647 100.447 12.0338 100.433 12.1277Z" fill="#179BD7"/>
<path d="M63.0993 19.5558L63.2737 18.43L62.8854 18.4208H61.0312L62.3198 10.1132C62.3238 10.0881 62.3368 10.0647 62.3558 10.0481C62.3748 10.0315 62.3991 10.0223 62.4244 10.0223H65.5507C66.5886 10.0223 67.3049 10.242 67.6788 10.6754C67.8541 10.8788 67.9658 11.0913 68.0198 11.3251C68.0764 11.5705 68.0774 11.8636 68.0221 12.2212L68.0181 12.2473V12.4764L68.1934 12.5774C68.3411 12.657 68.4584 12.7482 68.5484 12.8526C68.6984 13.0264 68.7953 13.2474 68.8363 13.5094C68.8787 13.7788 68.8647 14.0994 68.7953 14.4624C68.7154 14.8799 68.586 15.2436 68.4114 15.5411C68.2507 15.8153 68.0461 16.0427 67.8031 16.2189C67.5712 16.3863 67.2955 16.5134 66.9839 16.5948C66.6819 16.6748 66.3376 16.7151 65.96 16.7151H65.7167C65.5427 16.7151 65.3737 16.7788 65.2411 16.893C65.1081 17.0096 65.0201 17.1689 64.9931 17.3431L64.9748 17.4444L64.6668 19.4287L64.6528 19.5016C64.6492 19.5246 64.6428 19.5362 64.6335 19.5439C64.6252 19.5511 64.6132 19.5558 64.6015 19.5558H63.0993Z" fill="#253B80"/>
<path d="M68.3556 12.2747C68.3462 12.3353 68.3356 12.3973 68.3236 12.4611C67.9113 14.6135 66.5008 15.357 64.6993 15.357H63.7821C63.5618 15.357 63.3761 15.5197 63.3418 15.7407L62.8722 18.7691L62.7392 19.6276C62.7169 19.7727 62.8269 19.9035 62.9709 19.9035H64.5977C64.7903 19.9035 64.954 19.7611 64.9843 19.568L65.0003 19.4839L65.3066 17.5074L65.3262 17.3989C65.3562 17.2051 65.5202 17.0627 65.7129 17.0627H65.9562C67.5323 17.0627 68.7662 16.412 69.1268 14.5291C69.2775 13.7425 69.1995 13.0857 68.8008 12.6237C68.6802 12.4844 68.5305 12.3689 68.3556 12.2747Z" fill="#179BD7"/>
<path d="M67.9262 12.1014C67.8632 12.0828 67.7982 12.0658 67.7316 12.0506C67.6646 12.0357 67.5959 12.0224 67.5253 12.0109C67.278 11.9702 67.007 11.9509 66.7167 11.9509H64.2663C64.206 11.9509 64.1487 11.9648 64.0973 11.9899C63.9843 12.0451 63.9004 12.1539 63.88 12.2871L63.3587 15.6443L63.3438 15.7423C63.3781 15.5213 63.5637 15.3586 63.784 15.3586H64.7013C66.5027 15.3586 67.9132 14.6147 68.3255 12.4627C68.3378 12.399 68.3482 12.3369 68.3575 12.2763C68.2532 12.22 68.1402 12.1719 68.0185 12.1309C67.9885 12.1207 67.9575 12.1109 67.9262 12.1014Z" fill="#222D65"/>
<path d="M63.8781 12.2856C63.8985 12.1525 63.9824 12.0437 64.0954 11.9888C64.1471 11.9637 64.2041 11.9498 64.2644 11.9498H66.7148C67.0051 11.9498 67.2761 11.9691 67.5234 12.0098C67.594 12.0213 67.6627 12.0345 67.7297 12.0494C67.7963 12.0647 67.8613 12.0816 67.9243 12.1003C67.9556 12.1097 67.9866 12.1196 68.017 12.1294C68.1386 12.1704 68.2516 12.2189 68.3559 12.2748C68.4786 11.4794 68.3549 10.9378 67.932 10.4474C67.4657 9.90753 66.6241 9.67639 65.5473 9.67639H62.421C62.201 9.67639 62.0133 9.83907 61.9793 10.0604L60.6772 18.4534C60.6515 18.6195 60.7775 18.7693 60.9421 18.7693H62.8722L63.3568 15.6429L63.8781 12.2856Z" fill="#253B80"/>
<g clip-path="url(#clip0_116_7767)">
<path d="M129.883 0H141.841C143.511 0 144.549 1.26991 144.159 2.83309L138.592 25.1431C138.199 26.7008 136.528 27.9718 134.857 27.9718H122.9C121.233 27.9718 120.192 26.7008 120.582 25.1431L126.152 2.83309C126.541 1.26991 128.211 0 129.883 0Z" fill="#E21836"/>
<path d="M140.842 0H154.594C156.263 0 155.51 1.26991 155.118 2.83309L149.551 25.1431C149.16 26.7008 149.282 27.9718 147.61 27.9718H133.858C132.185 27.9718 131.15 26.7008 131.543 25.1431L137.11 2.83309C137.505 1.26991 139.172 0 140.842 0Z" fill="#00447C"/>
<path d="M154.051 0H166.01C167.681 0 168.72 1.26991 168.327 2.83309L162.76 25.1431C162.368 26.7008 160.695 27.9718 159.024 27.9718H147.071C145.398 27.9718 144.361 26.7008 144.753 25.1431L150.32 2.83309C150.71 1.26991 152.379 0 154.051 0Z" fill="#007B84"/>
<path d="M133.007 7.15096C131.777 7.16266 131.414 7.15096 131.298 7.12539C131.253 7.32317 130.423 10.896 130.421 10.8989C130.242 11.6218 130.112 12.137 129.671 12.4697C129.42 12.6632 129.127 12.7565 128.788 12.7565C128.243 12.7565 127.925 12.5038 127.872 12.0244L127.861 11.8598C127.861 11.8598 128.028 10.8916 128.028 10.8862C128.028 10.8862 128.899 7.63031 129.054 7.19993C129.063 7.17545 129.065 7.16266 129.067 7.15096C127.372 7.16484 127.071 7.15096 127.051 7.12539C127.039 7.16049 126.997 7.36234 126.997 7.36234L126.108 11.032L126.032 11.3432L125.884 12.3612C125.884 12.6632 125.947 12.9096 126.074 13.118C126.479 13.7788 127.635 13.8779 128.288 13.8779C129.131 13.8779 129.921 13.7108 130.455 13.4059C131.382 12.8947 131.624 12.0957 131.841 11.3856L131.941 11.0214C131.941 11.0214 132.838 7.63983 132.991 7.19993C132.996 7.17545 132.999 7.16266 133.007 7.15096ZM136.059 9.87888C135.843 9.87888 135.448 9.92785 135.093 10.0903C134.964 10.152 134.842 10.2233 134.713 10.2943L134.829 9.90337L134.766 9.83753C134.013 9.97981 133.845 9.99886 133.149 10.0903L133.091 10.1264C133.01 10.7513 132.938 11.2212 132.639 12.4495C132.525 12.9021 132.407 13.3592 132.288 13.8108L132.32 13.8682C133.033 13.8331 133.249 13.8331 133.868 13.8426L133.919 13.7917C133.997 13.4155 134.007 13.3273 134.182 12.5653C134.264 12.2041 134.435 11.4102 134.519 11.1276C134.674 11.0607 134.826 10.9948 134.972 10.9948C135.319 10.9948 135.277 11.2775 135.263 11.3901C135.249 11.5792 135.122 12.1967 134.992 12.7269L134.906 13.0692C134.845 13.3219 134.779 13.5676 134.719 13.8181L134.745 13.8682C135.448 13.8331 135.662 13.8331 136.262 13.8426L136.332 13.7917C136.441 13.2041 136.473 13.0469 136.665 12.1913L136.762 11.7982C136.95 11.0288 137.044 10.6387 136.902 10.321C136.751 9.96485 136.391 9.87888 136.059 9.87888ZM139.469 10.6844C139.096 10.7513 138.858 10.7959 138.621 10.8248C138.386 10.8599 138.158 10.8917 137.797 10.9385L137.768 10.9627L137.742 10.982C137.704 11.2328 137.678 11.4497 137.628 11.7046C137.586 11.9682 137.521 12.2677 137.415 12.6981C137.333 13.0275 137.291 13.1423 137.244 13.2582C137.199 13.3741 137.149 13.4867 137.057 13.8107L137.078 13.8407L137.096 13.8681C137.434 13.8532 137.654 13.8426 137.881 13.8407C138.107 13.8331 138.342 13.8407 138.705 13.8426L138.737 13.8184L138.771 13.7917C138.824 13.4995 138.832 13.4209 138.864 13.2783C138.895 13.1255 138.95 12.9138 139.085 12.3485C139.148 12.083 139.219 11.8183 139.285 11.5473C139.353 11.2774 139.425 11.0117 139.493 10.7461L139.483 10.714L139.469 10.6844ZM139.477 9.59832C139.138 9.41143 138.542 9.47073 138.142 9.7289C137.742 9.98191 137.697 10.341 138.035 10.5304C138.368 10.7121 138.966 10.6579 139.363 10.3976C139.762 10.1391 139.812 9.78331 139.477 9.59832ZM141.529 13.9267C142.216 13.9267 142.919 13.7502 143.449 13.2262C143.856 12.8013 144.043 12.169 144.108 11.9087C144.319 11.0457 144.154 10.6428 143.948 10.3975C143.635 10.0234 143.082 9.90342 142.508 9.90342C142.163 9.90342 141.341 9.93525 140.699 10.4878C140.238 10.8863 140.025 11.4272 139.896 11.9457C139.767 12.474 139.617 13.4251 140.554 13.779C140.844 13.8949 141.26 13.9267 141.529 13.9267ZM141.475 11.9851C141.634 11.3317 141.821 10.7832 142.297 10.7832C142.671 10.7832 142.698 11.1913 142.532 11.8469C142.502 11.9925 142.366 12.5336 142.181 12.764C142.053 12.934 141.9 13.0371 141.732 13.0371C141.682 13.0371 141.383 13.0371 141.379 12.6239C141.376 12.4199 141.421 12.2115 141.475 11.9851ZM145.824 13.8427L145.877 13.7918C145.953 13.4156 145.966 13.3272 146.134 12.5654C146.219 12.2041 146.393 11.4103 146.475 11.1277C146.63 11.0605 146.78 10.9946 146.93 10.9946C147.275 10.9946 147.233 11.2773 147.22 11.3899C147.207 11.5793 147.081 12.1965 146.949 12.7267L146.867 13.069C146.804 13.322 146.736 13.5674 146.675 13.8182L146.702 13.8683C147.406 13.8332 147.613 13.8332 148.216 13.8427L148.289 13.7918C148.395 13.2039 148.423 13.0467 148.621 12.1914L148.716 11.798C148.905 11.0286 149 10.6388 148.86 10.321C148.706 9.96493 148.342 9.87896 148.016 9.87896C147.799 9.87896 147.402 9.92766 147.049 10.0903C146.923 10.1521 146.796 10.2231 146.672 10.2944L146.78 9.90345L146.722 9.83734C145.969 9.97989 145.798 9.99894 145.103 10.0903L145.05 10.1265C144.965 10.7514 144.897 11.221 144.597 12.4495C144.484 12.9022 144.365 13.3593 144.247 13.8109L144.279 13.8683C144.992 13.8332 145.206 13.8332 145.824 13.8427ZM151.002 13.8681C151.046 13.6663 151.31 12.4698 151.312 12.4698C151.312 12.4698 151.536 11.5919 151.55 11.5601C151.55 11.5601 151.62 11.4687 151.691 11.4325H151.795C152.774 11.4325 153.879 11.4325 154.746 10.8375C155.335 10.4295 155.739 9.82687 155.918 9.09452C155.965 8.91497 155.999 8.70141 155.999 8.48786C155.999 8.20738 155.939 7.92989 155.765 7.71307C155.323 7.13606 154.443 7.12545 153.427 7.12109C153.424 7.12109 152.926 7.12545 152.926 7.12545C151.626 7.14041 151.105 7.13606 150.89 7.11157C150.872 7.19999 150.838 7.35723 150.838 7.35723C150.838 7.35723 150.372 9.37201 150.372 9.37527C150.372 9.37527 149.258 13.6589 149.205 13.8608C150.341 13.848 150.806 13.848 151.002 13.8681ZM151.865 10.2891C151.865 10.2891 152.36 8.27838 152.358 8.286L152.374 8.18289L152.381 8.10427L152.579 8.12331C152.579 8.12331 153.6 8.2052 153.624 8.20738C154.027 8.35292 154.193 8.72807 154.077 9.21776C153.972 9.66527 153.661 10.0415 153.261 10.2232C152.932 10.3772 152.529 10.39 152.113 10.39H151.845L151.865 10.2891ZM154.948 12.0224C154.818 12.5431 154.667 13.4941 155.6 13.8331C155.897 13.9512 156.163 13.9863 156.434 13.9735C156.72 13.9591 156.985 13.8252 157.23 13.6326C157.208 13.7118 157.186 13.7909 157.164 13.8704L157.206 13.9212C157.877 13.8949 158.085 13.8949 158.812 13.9L158.878 13.8532C158.984 13.2711 159.084 12.7057 159.359 11.592C159.494 11.0585 159.628 10.5302 159.766 9.99888L159.744 9.94039C158.994 10.0702 158.793 10.0979 158.072 10.1934L158.017 10.235C158.01 10.2892 158.002 10.3411 157.995 10.3931C157.883 10.2239 157.72 10.0794 157.469 9.98936C157.148 9.87156 156.394 10.0234 155.747 10.574C155.291 10.9671 155.073 11.5057 154.948 12.0224ZM156.524 12.0542C156.685 11.4124 156.869 10.8694 157.347 10.8694C157.65 10.8694 157.809 11.1298 157.776 11.5738C157.751 11.6845 157.723 11.8012 157.69 11.9331C157.642 12.1238 157.59 12.3129 157.54 12.5023C157.489 12.6317 157.429 12.7539 157.363 12.8352C157.24 12.9979 156.948 13.0989 156.779 13.0989C156.731 13.0989 156.436 13.0989 156.426 12.693C156.424 12.4908 156.468 12.2827 156.524 12.0542ZM164.753 9.9352L164.695 9.87344C163.952 10.0138 163.818 10.0361 163.136 10.1221L163.086 10.1689C163.083 10.1765 163.081 10.1882 163.078 10.1988L163.076 10.1882C162.568 11.2816 162.583 11.0457 162.169 11.9064C162.167 11.8673 162.167 11.8428 162.165 11.8012L162.061 9.9352L161.996 9.87344C161.219 10.0138 161.2 10.0361 160.482 10.1221L160.426 10.1689C160.418 10.1912 160.418 10.2157 160.414 10.2423L160.418 10.2519C160.508 10.6801 160.486 10.5846 160.576 11.2603C160.618 11.592 160.674 11.9255 160.716 12.253C160.787 12.8012 160.827 13.0711 160.913 13.9076C160.428 14.6547 160.314 14.9373 159.847 15.5929L159.85 15.5995L159.521 16.0848C159.483 16.136 159.449 16.171 159.401 16.186C159.349 16.2102 159.281 16.2146 159.186 16.2146H159.004L158.733 17.0552L159.662 17.0702C160.207 17.068 160.55 16.8299 160.735 16.51L161.319 15.5758H161.31L161.371 15.51C161.764 14.7205 164.753 9.9352 164.753 9.9352ZM154.948 20.9755H154.554L156.013 16.4729H156.497L156.65 16.009L156.665 16.5248C156.647 16.8437 156.916 17.1263 157.622 17.0795H158.438L158.719 16.2125H158.412C158.235 16.2125 158.154 16.1709 158.164 16.0817L158.149 15.5569H156.637V15.5596C156.148 15.5691 154.688 15.6034 154.393 15.6769C154.035 15.7628 153.658 16.0158 153.658 16.0158L153.806 15.5515H152.392L152.097 16.4729L150.619 21.0444H150.333L150.051 21.9051H152.868L152.774 22.1921H154.162L154.254 21.9051H154.643L154.948 20.9755ZM153.793 17.3878C153.566 17.4463 153.145 17.6236 153.145 17.6236L153.52 16.4729H154.643L154.372 17.3113C154.372 17.3113 154.025 17.3304 153.793 17.3878ZM153.814 19.0318C153.814 19.0318 153.461 19.0731 153.229 19.1221C153 19.1868 152.571 19.3909 152.571 19.3909L152.958 18.1933H154.088L153.814 19.0318ZM153.185 20.9861H152.058L152.384 19.9755H153.508L153.185 20.9861ZM155.899 18.1933H157.524L157.29 18.899H155.644L155.397 19.6705H156.837L155.747 21.1039C155.67 21.2092 155.602 21.2465 155.526 21.2761C155.449 21.3123 155.349 21.3548 155.233 21.3548H154.833L154.559 22.1997H155.604C156.147 22.1997 156.468 21.969 156.705 21.6662L157.453 20.7108L157.614 21.6809C157.648 21.8627 157.788 21.969 157.883 22.0104C157.987 22.0594 158.095 22.1434 158.248 22.1559C158.412 22.1625 158.53 22.1676 158.609 22.1676H159.123L159.431 21.222H159.228C159.112 21.222 158.912 21.2038 158.878 21.1698C158.844 21.1284 158.844 21.0648 158.825 20.9679L158.662 19.9956H157.995L158.288 19.6705H159.931L160.184 18.899H158.662L158.899 18.1933H160.416L160.697 17.323H156.176L155.899 18.1933ZM142.177 21.1826L142.556 20.0052H144.115L144.399 19.1295H142.839L143.077 18.4048H144.602L144.884 17.5568H141.07L140.793 18.4048H141.66L141.429 19.1295H140.56L140.272 20.0202H141.138L140.633 21.5779C140.565 21.7841 140.665 21.8628 140.728 21.9585C140.793 22.0518 140.859 22.1136 141.007 22.1487C141.16 22.1805 141.265 22.1995 141.407 22.1995H143.164L143.477 21.2294L142.698 21.3293C142.548 21.3293 142.131 21.3124 142.177 21.1826ZM142.356 15.5462L141.961 16.2124C141.876 16.3579 141.8 16.4483 141.732 16.4899C141.671 16.525 141.552 16.5397 141.379 16.5397H141.172L140.897 17.392H141.581C141.91 17.392 142.163 17.2794 142.284 17.2231C142.414 17.1583 142.448 17.1953 142.548 17.105L142.779 16.9181H144.916L145.2 16.0307H143.635L143.909 15.5462H142.356ZM145.511 21.1997C145.474 21.1508 145.5 21.0645 145.556 20.885L146.14 19.0805H148.218C148.521 19.0764 148.74 19.0732 148.882 19.0636C149.035 19.0487 149.201 18.9978 149.382 18.9064C149.569 18.8106 149.664 18.7097 149.745 18.5938C149.835 18.4782 149.98 18.2252 150.104 17.8351L150.838 15.5515L148.682 15.5632C148.682 15.5632 148.018 15.6546 147.725 15.7556C147.43 15.8682 147.009 16.1827 147.009 16.1827L147.204 15.5567H145.872L144.007 21.3292C143.94 21.5534 143.896 21.7161 143.886 21.8138C143.882 21.919 144.028 22.0232 144.123 22.1019C144.234 22.1805 144.399 22.1677 144.558 22.1805C144.724 22.1922 144.961 22.1995 145.287 22.1995H146.311L146.625 21.2093L145.709 21.2901C145.611 21.2901 145.54 21.2411 145.511 21.1997ZM146.517 17.8617H148.7L148.561 18.2676C148.541 18.2771 148.495 18.2475 148.273 18.272H146.383L146.517 17.8617ZM146.954 16.5004H149.155L148.997 16.9893C148.997 16.9893 147.96 16.9798 147.794 17.0083C147.062 17.1264 146.635 17.4909 146.635 17.4909L146.954 16.5004ZM148.61 19.6269C148.592 19.6875 148.563 19.7245 148.523 19.7523C148.479 19.7789 148.407 19.7884 148.3 19.7884H147.989L148.008 19.2941H146.714L146.662 21.7107C146.66 21.8851 146.678 21.986 146.814 22.0668C146.951 22.1678 147.372 22.1806 147.939 22.1806H148.75L149.042 21.276L148.337 21.3122L148.102 21.325C148.07 21.3122 148.039 21.3005 148.005 21.2687C147.976 21.2412 147.925 21.258 147.934 21.0837L147.939 20.4642L148.679 20.4356C149.079 20.4356 149.25 20.3143 149.395 20.1987C149.534 20.088 149.58 19.9607 149.632 19.7884L149.757 19.24H148.74L148.61 19.6269Z" fill="#FEFEFE"/>
</g>
<g clip-path="url(#clip1_116_7767)">
<rect x="184.938" y="0.4375" width="47.125" height="27.7083" rx="3.0625" fill="white" stroke="#C9C9C9" stroke-width="0.875"/>
<path fill-rule="evenodd" clip-rule="evenodd" d="M209.183 11.4628C209.162 13.1963 210.616 14.1636 211.71 14.7388C212.835 15.329 213.213 15.7074 213.209 16.2351C213.2 17.0428 212.311 17.3992 211.48 17.4131C210.028 17.4373 209.185 16.9907 208.514 16.6528L207.991 19.29C208.664 19.6245 209.91 19.9161 211.203 19.9288C214.236 19.9288 216.22 18.3145 216.231 15.8116C216.243 12.6351 212.156 12.4592 212.184 11.0393C212.193 10.6088 212.574 10.1494 213.409 10.0325C213.823 9.97355 214.964 9.92837 216.257 10.5706L216.765 8.01907C216.069 7.74594 215.175 7.48438 214.062 7.48438C211.207 7.48438 209.199 9.12064 209.183 11.4628ZM221.643 7.70423C221.089 7.70423 220.622 8.0526 220.414 8.5872L216.081 19.7413H219.112L219.715 17.9442H223.419L223.769 19.7413H226.441L224.11 7.70423H221.643ZM222.067 10.9559L222.942 15.4759H220.546L222.067 10.9559ZM205.507 7.70423L203.118 19.7413H206.007L208.395 7.70423H205.507ZM201.234 7.70423L198.228 15.8971L197.012 8.93085C196.869 8.15328 196.306 7.70423 195.68 7.70423H190.765L190.696 8.05375C191.705 8.28979 192.852 8.67053 193.546 9.07787C193.971 9.32662 194.092 9.54416 194.232 10.1355L196.535 19.7413H199.588L204.268 7.70423H201.234Z" fill="#1434CB"/>
</g>
<g clip-path="url(#clip2_116_7767)">
<rect x="248.5" width="48" height="28.5833" rx="3.5" fill="#003058"/>
<path d="M276.799 7.02954H269.081V21.1852H276.799V7.02954Z" fill="#FF5A00"/>
<path d="M269.596 14.108C269.596 11.232 270.921 8.67947 272.953 7.03021C271.457 5.82968 269.571 5.10413 267.513 5.10413C262.637 5.10413 258.692 9.13112 258.692 14.108C258.692 19.085 262.637 23.112 267.513 23.112C269.571 23.112 271.457 22.3864 272.953 21.1859C270.918 19.5599 269.596 16.9841 269.596 14.108Z" fill="#EB001B"/>
<path d="M287.217 14.108C287.217 19.085 283.272 23.112 278.397 23.112C276.339 23.112 274.452 22.3864 272.956 21.1859C275.014 19.5337 276.313 16.9841 276.313 14.108C276.313 11.232 274.988 8.67947 272.956 7.03021C274.449 5.82968 276.336 5.10413 278.394 5.10413C283.272 5.10413 287.217 9.15735 287.217 14.108Z" fill="#F79E1B"/>
</g>
<path d="M84.7666 51.1521C84.7427 48.5027 86.9383 47.2138 87.0387 47.1538C85.7952 45.343 83.8679 45.0955 83.1906 45.0758C81.5719 44.9057 80.0017 46.0433 79.1772 46.0433C78.3361 46.0433 77.0663 45.0923 75.6978 45.1202C73.9367 45.1473 72.2892 46.1658 71.3856 47.7473C69.5208 50.972 70.9115 55.7109 72.6982 58.3175C73.5919 59.594 74.6362 61.0194 76.0031 60.9692C77.3404 60.9142 77.8399 60.1176 79.4537 60.1176C81.0526 60.1176 81.5217 60.9692 82.9158 60.9372C84.351 60.9142 85.2546 59.6549 86.117 58.3668C87.1498 56.9036 87.5646 55.4626 87.581 55.3887C87.5473 55.3772 84.7937 54.3275 84.7666 51.1521Z" fill="#302823"/>
<path d="M82.1332 43.3612C82.8525 42.4627 83.3446 41.2404 83.208 40C82.167 40.046 80.8651 40.7193 80.1154 41.598C79.4521 42.3723 78.8596 43.6415 79.0126 44.835C80.182 44.9222 81.3827 44.2456 82.1332 43.3612Z" fill="#302823"/>
<path d="M104.12 57.0995H102.251L101.227 53.8863H97.6687L96.6935 57.0995H94.874L98.3995 46.1603H100.577L104.12 57.0995ZM100.919 52.5382L99.9927 49.6817C99.8948 49.3899 99.7113 48.7027 99.4405 47.621H99.4076C99.2998 48.0862 99.1262 48.7734 98.8875 49.6817L97.9782 52.5382H100.919Z" fill="#302823"/>
<path d="M113.186 53.0586C113.186 54.4001 112.823 55.4605 112.097 56.2389C111.447 56.9319 110.64 57.2779 109.676 57.2779C108.636 57.2779 107.889 56.9047 107.433 56.1584H107.401V60.3136H105.646V51.8083C105.646 50.9649 105.624 50.0994 105.581 49.2116H107.124L107.222 50.4619H107.255C107.84 49.5199 108.728 49.0497 109.92 49.0497C110.851 49.0497 111.629 49.4171 112.251 50.1528C112.875 50.8893 113.186 51.8576 113.186 53.0586ZM111.398 53.1227C111.398 52.355 111.226 51.722 110.878 51.2239C110.499 50.7044 109.99 50.4446 109.351 50.4446C108.918 50.4446 108.525 50.5893 108.173 50.8745C107.821 51.1622 107.591 51.5379 107.483 52.0031C107.429 52.2201 107.401 52.3977 107.401 52.5374V53.8526C107.401 54.4264 107.578 54.9106 107.93 55.3059C108.282 55.7013 108.739 55.8986 109.302 55.8986C109.963 55.8986 110.478 55.6438 110.845 55.1358C111.214 54.627 111.398 53.9562 111.398 53.1227Z" fill="#302823"/>
<path d="M122.269 53.0586C122.269 54.4001 121.906 55.4605 121.179 56.2389C120.53 56.9319 119.723 57.2779 118.759 57.2779C117.719 57.2779 116.972 56.9047 116.517 56.1584H116.485V60.3136H114.73V51.8083C114.73 50.9649 114.708 50.0994 114.665 49.2116H116.208L116.306 50.4619H116.339C116.923 49.5199 117.811 49.0497 119.004 49.0497C119.934 49.0497 120.712 49.4171 121.336 50.1528C121.957 50.8893 122.269 51.8576 122.269 53.0586ZM120.482 53.1227C120.482 52.355 120.308 51.722 119.961 51.2239C119.581 50.7044 119.074 50.4446 118.434 50.4446C118 50.4446 117.608 50.5893 117.256 50.8745C116.903 51.1622 116.674 51.5379 116.566 52.0031C116.513 52.2201 116.485 52.3977 116.485 52.5374V53.8526C116.485 54.4264 116.661 54.9106 117.011 55.3059C117.363 55.7005 117.821 55.8986 118.386 55.8986C119.046 55.8986 119.561 55.6438 119.929 55.1358C120.297 54.627 120.482 53.9562 120.482 53.1227Z" fill="#302823"/>
<path d="M132.424 54.0318C132.424 54.9623 132.101 55.7194 131.451 56.3038C130.738 56.9425 129.745 57.2614 128.468 57.2614C127.29 57.2614 126.345 57.0346 125.63 56.58L126.036 55.1193C126.807 55.5845 127.652 55.818 128.573 55.818C129.234 55.818 129.748 55.6684 130.117 55.3708C130.485 55.0733 130.669 54.6738 130.669 54.1756C130.669 53.7318 130.517 53.3577 130.214 53.0544C129.912 52.7511 129.407 52.4692 128.703 52.2086C126.785 51.4943 125.827 50.4479 125.827 49.0718C125.827 48.1726 126.163 47.4352 126.835 46.8615C127.505 46.2869 128.399 46 129.517 46C130.513 46 131.341 46.1734 132.002 46.5195L131.563 47.9481C130.946 47.6128 130.248 47.4451 129.467 47.4451C128.85 47.4451 128.368 47.5972 128.022 47.8996C127.73 48.1701 127.584 48.4997 127.584 48.8902C127.584 49.3225 127.751 49.6801 128.086 49.9612C128.379 50.221 128.909 50.5021 129.68 50.8054C130.622 51.1844 131.314 51.6274 131.759 52.1354C132.203 52.6418 132.424 53.2755 132.424 54.0318Z" fill="#302823"/>
<path d="M138.225 50.5268H136.291V54.3565C136.291 55.3306 136.632 55.8172 137.315 55.8172C137.629 55.8172 137.889 55.7901 138.094 55.7359L138.143 57.0667C137.797 57.1957 137.342 57.2607 136.779 57.2607C136.086 57.2607 135.544 57.0494 135.153 56.6277C134.764 56.2052 134.568 55.4967 134.568 54.5012V50.5252H133.416V49.21H134.568V47.7657L136.291 47.2462V49.21H138.225V50.5268Z" fill="#302823"/>
<path d="M146.951 53.0906C146.951 54.303 146.603 55.2985 145.91 56.0769C145.184 56.8783 144.219 57.2778 143.017 57.2778C141.858 57.2778 140.936 56.894 140.248 56.1262C139.56 55.3585 139.216 54.3893 139.216 53.2213C139.216 51.9989 139.57 50.9977 140.28 50.2193C140.988 49.44 141.945 49.0504 143.147 49.0504C144.306 49.0504 145.238 49.4343 145.942 50.2029C146.615 50.9484 146.951 51.911 146.951 53.0906ZM145.13 53.1473C145.13 52.4198 144.975 51.7959 144.66 51.2756C144.292 50.6459 143.766 50.3319 143.084 50.3319C142.379 50.3319 141.843 50.6467 141.476 51.2756C141.16 51.7967 141.005 52.4305 141.005 53.1802C141.005 53.9076 141.16 54.5315 141.476 55.051C141.855 55.6807 142.385 55.9947 143.069 55.9947C143.739 55.9947 144.265 55.6741 144.644 55.0346C144.967 54.5044 145.13 53.8739 145.13 53.1473Z" fill="#302823"/>
<path d="M152.654 50.7529C152.48 50.7208 152.295 50.7044 152.101 50.7044C151.483 50.7044 151.006 50.937 150.67 51.4031C150.378 51.8141 150.232 52.3336 150.232 52.9608V57.0996H148.478L148.495 51.6957C148.495 50.7866 148.472 49.9588 148.429 49.2124H149.957L150.021 50.7216H150.07C150.255 50.203 150.547 49.7854 150.947 49.4722C151.338 49.1902 151.76 49.0497 152.215 49.0497C152.377 49.0497 152.524 49.0612 152.654 49.0817V50.7529Z" fill="#302823"/>
<path d="M160.5 52.7823C160.5 53.0963 160.48 53.361 160.436 53.5772H155.173C155.193 54.3564 155.448 54.9524 155.936 55.3634C156.38 55.7308 156.954 55.915 157.658 55.915C158.437 55.915 159.148 55.7908 159.788 55.5418L160.063 56.7583C159.315 57.0838 158.433 57.2458 157.415 57.2458C156.191 57.2458 155.23 56.8857 154.53 56.1665C153.832 55.4472 153.482 54.4814 153.482 53.2697C153.482 52.0803 153.807 51.0898 154.458 50.2999C155.14 49.4565 156.061 49.0348 157.219 49.0348C158.358 49.0348 159.219 49.4565 159.804 50.2999C160.268 50.9698 160.5 51.7984 160.5 52.7823ZM158.827 52.3277C158.839 51.8082 158.725 51.3594 158.487 50.9805C158.183 50.493 157.716 50.2497 157.089 50.2497C156.515 50.2497 156.048 50.4873 155.692 50.964C155.4 51.343 155.226 51.7975 155.173 52.3269L158.827 52.3277Z" fill="#302823"/>
<path d="M237.781 50.399C235.917 50.399 234.442 51.7965 234.442 53.7374C234.442 55.6007 235.917 57.0759 237.781 57.0759C239.644 57.0759 241.119 55.6784 241.119 53.7374C241.119 51.7188 239.644 50.399 237.781 50.399ZM237.781 55.6784C236.771 55.6784 235.917 54.8244 235.917 53.6598C235.917 52.4952 236.771 51.6412 237.781 51.6412C238.79 51.6412 239.644 52.4176 239.644 53.6598C239.644 54.8244 238.79 55.6784 237.781 55.6784ZM230.56 50.399C228.697 50.399 227.222 51.7965 227.222 53.7374C227.222 55.6007 228.697 57.0759 230.56 57.0759C232.424 57.0759 233.899 55.6784 233.899 53.7374C233.899 51.7188 232.424 50.399 230.56 50.399ZM230.56 55.6784C229.551 55.6784 228.697 54.8244 228.697 53.6598C228.697 52.4952 229.551 51.6412 230.56 51.6412C231.57 51.6412 232.424 52.4176 232.424 53.6598C232.424 54.8244 231.57 55.6784 230.56 55.6784ZM221.942 51.4083V52.8058H225.281C225.203 53.5821 224.893 54.2032 224.505 54.5914C224.039 55.0573 223.262 55.6007 221.942 55.6007C219.846 55.6007 218.293 53.9703 218.293 51.8741C218.293 49.7779 219.924 48.1475 221.942 48.1475C223.029 48.1475 223.883 48.6133 224.505 49.1568L225.514 48.1475C224.66 47.3711 223.573 46.75 222.02 46.75C219.225 46.75 216.818 49.0791 216.818 51.8741C216.818 54.6691 219.225 56.9982 222.02 56.9982C223.573 56.9982 224.66 56.5324 225.591 55.5231C226.523 54.5914 226.834 53.2716 226.834 52.2623C226.834 51.9517 226.834 51.6412 226.756 51.4083H221.942ZM257.19 52.4952C256.88 51.7188 256.103 50.399 254.395 50.399C252.687 50.399 251.29 51.7188 251.29 53.7374C251.29 55.6007 252.687 57.0759 254.55 57.0759C256.026 57.0759 256.957 56.1442 257.268 55.6007L256.181 54.8244C255.793 55.3678 255.327 55.756 254.55 55.756C253.774 55.756 253.308 55.4455 252.92 54.7467L257.345 52.8834L257.19 52.4952ZM252.687 53.5821C252.687 52.3399 253.696 51.6412 254.395 51.6412C254.939 51.6412 255.482 51.9517 255.637 52.3399L252.687 53.5821ZM249.038 56.7653H250.513V47.0606H249.038V56.7653ZM246.709 51.0977C246.321 50.7095 245.7 50.3213 244.923 50.3213C243.293 50.3213 241.74 51.7965 241.74 53.6598C241.74 55.5231 243.215 56.9206 244.923 56.9206C245.7 56.9206 246.321 56.5324 246.631 56.1442H246.709V56.61C246.709 57.8522 246.01 58.551 244.923 58.551C244.069 58.551 243.448 57.9299 243.293 57.3864L242.051 57.9299C242.439 58.7839 243.371 59.8708 245.001 59.8708C246.709 59.8708 248.106 58.8615 248.106 56.4548V50.5543H246.709V51.0977ZM245.001 55.6784C243.992 55.6784 243.138 54.8244 243.138 53.6598C243.138 52.4952 243.992 51.6412 245.001 51.6412C246.01 51.6412 246.787 52.4952 246.787 53.6598C246.787 54.8244 246.01 55.6784 245.001 55.6784ZM263.945 47.0606H260.451V56.7653H261.926V53.1163H263.945C265.575 53.1163 267.128 51.9517 267.128 50.0884C267.128 48.2251 265.575 47.0606 263.945 47.0606ZM264.022 51.7188H261.926V48.3804H264.022C265.109 48.3804 265.73 49.3121 265.73 50.0108C265.653 50.8648 265.032 51.7188 264.022 51.7188ZM272.951 50.3213C271.864 50.3213 270.777 50.7872 270.389 51.7965L271.708 52.3399C272.019 51.7965 272.485 51.6412 273.028 51.6412C273.805 51.6412 274.503 52.107 274.581 52.8834V52.961C274.348 52.8058 273.727 52.5729 273.106 52.5729C271.708 52.5729 270.311 53.3492 270.311 54.7467C270.311 56.0666 271.475 56.9206 272.718 56.9206C273.727 56.9206 274.193 56.4548 274.581 55.9889H274.659V56.7653H276.056V53.0387C275.901 51.3306 274.581 50.3213 272.951 50.3213ZM272.795 55.6784C272.33 55.6784 271.631 55.4455 271.631 54.8244C271.631 54.048 272.485 53.8151 273.184 53.8151C273.805 53.8151 274.115 53.9703 274.503 54.1256C274.348 55.0573 273.572 55.6784 272.795 55.6784ZM280.947 50.5543L279.317 54.7467H279.239L277.531 50.5543H275.979L278.541 56.4548L277.065 59.7155H278.541L282.5 50.5543H280.947ZM267.904 56.7653H269.379V47.0606H267.904V56.7653Z" fill="#302823"/>
<path d="M192.983 42.1927C192.75 42.4257 192.673 42.8139 192.673 43.2797V60.4377C192.673 60.9035 192.828 61.2917 193.061 61.5246L193.139 61.6022L202.766 51.9751V51.8199L192.983 42.1927Z" fill="url(#paint0_linear_116_7767)"/>
<path d="M205.872 55.2359L202.688 52.0528V51.8199L205.872 48.6367L205.949 48.7144L209.754 50.8882C210.84 51.5093 210.84 52.5186 209.754 53.1397L205.872 55.2359Z" fill="url(#paint1_linear_116_7767)"/>
<path d="M205.949 55.1583L202.688 51.8975L192.983 61.6022C193.372 61.9904 193.915 61.9904 194.614 61.6798L205.949 55.1583Z" fill="url(#paint2_linear_116_7767)"/>
<path d="M205.949 48.6367L194.614 42.1927C193.915 41.8045 193.372 41.8822 192.983 42.2704L202.688 51.8975L205.949 48.6367Z" fill="url(#paint3_linear_116_7767)"/>
<path opacity="0.2" d="M205.871 55.0807L194.614 61.447C193.993 61.8352 193.449 61.7576 193.061 61.447L192.983 61.5246L193.061 61.6023C193.449 61.9128 193.993 61.9905 194.614 61.6023L205.871 55.0807Z" fill="#534E4A"/>
<path opacity="0.12" d="M192.983 61.4469C192.75 61.214 192.673 60.8258 192.673 60.36V60.4376C192.673 60.9035 192.828 61.2917 193.061 61.5246V61.4469H192.983ZM209.753 52.9068L205.871 55.0806L205.949 55.1583L209.753 52.9844C210.297 52.6738 210.53 52.2857 210.53 51.8975C210.53 52.2857 210.219 52.5962 209.753 52.9068Z" fill="#534E4A"/>
<path opacity="0.25" d="M194.614 42.2704L209.753 50.8882C210.219 51.1987 210.53 51.5093 210.53 51.8975C210.53 51.5093 210.297 51.1211 209.753 50.8106L194.614 42.1927C193.527 41.5716 192.673 42.0375 192.673 43.2797V43.3573C192.673 42.1927 193.527 41.6493 194.614 42.2704Z" fill="#302823"/>
<path d="M110.419 90.3201C110.16 90.5711 110.041 90.9341 110.1 91.2901L110.989 96.2101C111.064 96.6271 110.888 97.0491 110.539 97.2901C110.197 97.5401 109.742 97.5701 109.369 97.3701L104.94 95.0601C104.786 94.9781 104.615 94.9341 104.44 94.9291H104.169C104.075 94.9431 103.983 94.9731 103.899 95.0191L99.4689 97.3401C99.2499 97.4501 99.0019 97.4891 98.7589 97.4501C98.1669 97.3381 97.7719 96.7741 97.8689 96.1791L98.7589 91.2591C98.8179 90.9001 98.6989 90.5351 98.4399 90.2801L94.8289 86.7801C94.5269 86.4871 94.4219 86.0471 94.5599 85.6501C94.6939 85.2541 95.0359 84.9651 95.4489 84.9001L100.419 84.1791C100.797 84.1401 101.129 83.9101 101.299 83.5701L103.489 79.0801C103.541 78.9801 103.608 78.8881 103.689 78.8101L103.779 78.7401C103.826 78.6881 103.88 78.6451 103.94 78.6101L104.049 78.5701L104.219 78.5001H104.64C105.016 78.5391 105.347 78.7641 105.52 79.1001L107.739 83.5701C107.899 83.8971 108.21 84.1241 108.569 84.1791L113.539 84.9001C113.959 84.9601 114.31 85.2501 114.449 85.6501C114.58 86.0511 114.467 86.4911 114.159 86.7801L110.419 90.3201Z" fill="#F8B432"/>
<path d="M138.419 90.3201C138.16 90.5711 138.041 90.9341 138.1 91.2901L138.989 96.2101C139.064 96.6271 138.888 97.0491 138.539 97.2901C138.197 97.5401 137.742 97.5701 137.369 97.3701L132.94 95.0601C132.786 94.9781 132.615 94.9341 132.44 94.9291H132.169C132.075 94.9431 131.983 94.9731 131.899 95.0191L127.469 97.3401C127.25 97.4501 127.002 97.4891 126.759 97.4501C126.167 97.3381 125.772 96.7741 125.869 96.1791L126.759 91.2591C126.818 90.9001 126.699 90.5351 126.44 90.2801L122.829 86.7801C122.527 86.4871 122.422 86.0471 122.56 85.6501C122.694 85.2541 123.036 84.9651 123.449 84.9001L128.419 84.1791C128.797 84.1401 129.129 83.9101 129.299 83.5701L131.489 79.0801C131.541 78.9801 131.608 78.8881 131.689 78.8101L131.779 78.7401C131.826 78.6881 131.88 78.6451 131.94 78.6101L132.049 78.5701L132.219 78.5001H132.64C133.016 78.5391 133.347 78.7641 133.52 79.1001L135.739 83.5701C135.899 83.8971 136.21 84.1241 136.569 84.1791L141.539 84.9001C141.959 84.9601 142.31 85.2501 142.449 85.6501C142.58 86.0511 142.467 86.4911 142.159 86.7801L138.419 90.3201Z" fill="#F8B432"/>
<path d="M166.419 90.3201C166.16 90.5711 166.041 90.9341 166.1 91.2901L166.989 96.2101C167.064 96.6271 166.888 97.0491 166.539 97.2901C166.197 97.5401 165.742 97.5701 165.369 97.3701L160.94 95.0601C160.786 94.9781 160.615 94.9341 160.44 94.9291H160.169C160.075 94.9431 159.983 94.9731 159.899 95.0191L155.469 97.3401C155.25 97.4501 155.002 97.4891 154.759 97.4501C154.167 97.3381 153.772 96.7741 153.869 96.1791L154.759 91.2591C154.818 90.9001 154.699 90.5351 154.44 90.2801L150.829 86.7801C150.527 86.4871 150.422 86.0471 150.56 85.6501C150.694 85.2541 151.036 84.9651 151.449 84.9001L156.419 84.1791C156.797 84.1401 157.129 83.9101 157.299 83.5701L159.489 79.0801C159.541 78.9801 159.608 78.8881 159.689 78.8101L159.779 78.7401C159.826 78.6881 159.88 78.6451 159.94 78.6101L160.049 78.5701L160.219 78.5001H160.64C161.016 78.5391 161.347 78.7641 161.52 79.1001L163.739 83.5701C163.899 83.8971 164.21 84.1241 164.569 84.1791L169.539 84.9001C169.959 84.9601 170.31 85.2501 170.449 85.6501C170.58 86.0511 170.467 86.4911 170.159 86.7801L166.419 90.3201Z" fill="#F8B432"/>
<path d="M194.419 90.3201C194.16 90.5711 194.041 90.9341 194.1 91.2901L194.989 96.2101C195.064 96.6271 194.888 97.0491 194.539 97.2901C194.197 97.5401 193.742 97.5701 193.369 97.3701L188.94 95.0601C188.786 94.9781 188.615 94.9341 188.44 94.9291H188.169C188.075 94.9431 187.983 94.9731 187.899 95.0191L183.469 97.3401C183.25 97.4501 183.002 97.4891 182.759 97.4501C182.167 97.3381 181.772 96.7741 181.869 96.1791L182.759 91.2591C182.818 90.9001 182.699 90.5351 182.44 90.2801L178.829 86.7801C178.527 86.4871 178.422 86.0471 178.56 85.6501C178.694 85.2541 179.036 84.9651 179.449 84.9001L184.419 84.1791C184.797 84.1401 185.129 83.9101 185.299 83.5701L187.489 79.0801C187.541 78.9801 187.608 78.8881 187.689 78.8101L187.779 78.7401C187.826 78.6881 187.88 78.6451 187.94 78.6101L188.049 78.5701L188.219 78.5001H188.64C189.016 78.5391 189.347 78.7641 189.52 79.1001L191.739 83.5701C191.899 83.8971 192.21 84.1241 192.569 84.1791L197.539 84.9001C197.959 84.9601 198.31 85.2501 198.449 85.6501C198.58 86.0511 198.467 86.4911 198.159 86.7801L194.419 90.3201Z" fill="#F8B432"/>
<path d="M222.419 90.3201C222.16 90.5711 222.041 90.9341 222.1 91.2901L222.989 96.2101C223.064 96.6271 222.888 97.0491 222.539 97.2901C222.197 97.5401 221.742 97.5701 221.369 97.3701L216.94 95.0601C216.786 94.9781 216.615 94.9341 216.44 94.9291H216.169C216.075 94.9431 215.983 94.9731 215.899 95.0191L211.469 97.3401C211.25 97.4501 211.002 97.4891 210.759 97.4501C210.167 97.3381 209.772 96.7741 209.869 96.1791L210.759 91.2591C210.818 90.9001 210.699 90.5351 210.44 90.2801L206.829 86.7801C206.527 86.4871 206.422 86.0471 206.56 85.6501C206.694 85.2541 207.036 84.9651 207.449 84.9001L212.419 84.1791C212.797 84.1401 213.129 83.9101 213.299 83.5701L215.489 79.0801C215.541 78.9801 215.608 78.8881 215.689 78.8101L215.779 78.7401C215.826 78.6881 215.88 78.6451 215.94 78.6101L216.049 78.5701L216.219 78.5001H216.64C217.016 78.5391 217.347 78.7641 217.52 79.1001L219.739 83.5701C219.899 83.8971 220.21 84.1241 220.569 84.1791L225.539 84.9001C225.959 84.9601 226.31 85.2501 226.449 85.6501C226.58 86.0511 226.467 86.4911 226.159 86.7801L222.419 90.3201Z" fill="#F8B432"/>
<path d="M237.812 91.424V90.32L243.428 82.544H245.172V90.16H246.772V91.424H245.172V94H243.732V91.424H237.812ZM243.796 84.064L239.492 90.16H243.796V84.064ZM249.97 91.984L248.178 96.288H247.202L248.37 91.984H249.97ZM253.51 87.984C252.913 87.7493 252.454 87.408 252.134 86.96C251.814 86.512 251.654 85.968 251.654 85.328C251.654 84.752 251.798 84.2347 252.086 83.776C252.374 83.3067 252.801 82.9387 253.366 82.672C253.942 82.3947 254.636 82.256 255.446 82.256C256.257 82.256 256.945 82.3947 257.51 82.672C258.086 82.9387 258.518 83.3067 258.806 83.776C259.105 84.2347 259.254 84.752 259.254 85.328C259.254 85.9467 259.089 86.4907 258.758 86.96C258.428 87.4187 257.974 87.76 257.398 87.984C258.06 88.1867 258.582 88.544 258.966 89.056C259.361 89.5573 259.558 90.1653 259.558 90.88C259.558 91.5733 259.388 92.1813 259.046 92.704C258.705 93.216 258.22 93.616 257.59 93.904C256.972 94.1813 256.257 94.32 255.446 94.32C254.636 94.32 253.921 94.1813 253.302 93.904C252.694 93.616 252.22 93.216 251.878 92.704C251.537 92.1813 251.366 91.5733 251.366 90.88C251.366 90.1653 251.558 89.552 251.942 89.04C252.326 88.528 252.849 88.176 253.51 87.984ZM257.846 85.504C257.846 84.8533 257.633 84.352 257.206 84C256.78 83.648 256.193 83.472 255.446 83.472C254.71 83.472 254.129 83.648 253.702 84C253.276 84.352 253.062 84.8587 253.062 85.52C253.062 86.1173 253.281 86.5973 253.718 86.96C254.166 87.3227 254.742 87.504 255.446 87.504C256.161 87.504 256.737 87.3227 257.174 86.96C257.622 86.5867 257.846 86.1013 257.846 85.504ZM255.446 88.624C254.657 88.624 254.012 88.8107 253.51 89.184C253.009 89.5467 252.758 90.096 252.758 90.832C252.758 91.5147 252.998 92.064 253.478 92.48C253.969 92.896 254.625 93.104 255.446 93.104C256.268 93.104 256.918 92.896 257.398 92.48C257.878 92.064 258.118 91.5147 258.118 90.832C258.118 90.1173 257.873 89.5733 257.382 89.2C256.892 88.816 256.246 88.624 255.446 88.624Z" fill="#7E7772"/>
<defs>
<linearGradient id="paint0_linear_116_7767" x1="201.834" y1="43.1322" x2="188.804" y2="56.1614" gradientUnits="userSpaceOnUse">
<stop stop-color="#00A0FF"/>
<stop offset="0.007" stop-color="#00A1FF"/>
<stop offset="0.26" stop-color="#00BEFF"/>
<stop offset="0.512" stop-color="#00D2FF"/>
<stop offset="0.76" stop-color="#00DFFF"/>
<stop offset="1" stop-color="#00E3FF"/>
</linearGradient>
<linearGradient id="paint1_linear_116_7767" x1="211.177" y1="51.8983" x2="192.391" y2="51.8983" gradientUnits="userSpaceOnUse">
<stop stop-color="#FFE000"/>
<stop offset="0.409" stop-color="#FFBD00"/>
<stop offset="0.775" stop-color="#FFA500"/>
<stop offset="1" stop-color="#FF9C00"/>
</linearGradient>
<linearGradient id="paint2_linear_116_7767" x1="204.184" y1="53.68" x2="186.515" y2="71.3489" gradientUnits="userSpaceOnUse">
<stop stop-color="#FF3A44"/>
<stop offset="1" stop-color="#C31162"/>
</linearGradient>
<linearGradient id="paint3_linear_116_7767" x1="190.574" y1="36.5065" x2="198.465" y2="44.3969" gradientUnits="userSpaceOnUse">
<stop stop-color="#32A071"/>
<stop offset="0.069" stop-color="#2DA771"/>
<stop offset="0.476" stop-color="#15CF74"/>
<stop offset="0.801" stop-color="#06E775"/>
<stop offset="1" stop-color="#00F076"/>
</linearGradient>
<clipPath id="clip0_116_7767">
<rect width="48" height="28" fill="white" transform="translate(120.5)"/>
</clipPath>
<clipPath id="clip1_116_7767">
<rect width="48" height="28" fill="white" transform="translate(184.5)"/>
</clipPath>
<clipPath id="clip2_116_7767">
<rect width="48" height="28" fill="white" transform="translate(248.5)"/>
</clipPath>
</defs>
</svg>
