<svg width="20" height="20" viewBox="0 0 20 20" fill="none" xmlns="http://www.w3.org/2000/svg">
<path d="M14.932 11.9334C14.7162 12.1426 14.617 12.4451 14.6662 12.7418L15.407 16.8418C15.4695 17.1893 15.3228 17.5409 15.032 17.7418C14.747 17.9501 14.3678 17.9751 14.057 17.8084L10.3662 15.8834C10.2378 15.8151 10.0953 15.7784 9.94949 15.7743H9.72366C9.64532 15.7859 9.56866 15.8109 9.49866 15.8493L5.80699 17.7834C5.62449 17.8751 5.41782 17.9076 5.21532 17.8751C4.72199 17.7818 4.39282 17.3118 4.47366 16.8159L5.21532 12.7159C5.26449 12.4168 5.16532 12.1126 4.94949 11.9001L1.94032 8.98343C1.68866 8.73927 1.60116 8.3726 1.71616 8.04177C1.82782 7.71177 2.11282 7.47093 2.45699 7.41677L6.59866 6.81593C6.91366 6.78343 7.19032 6.59177 7.33199 6.30843L9.15699 2.56677C9.20032 2.48344 9.25616 2.40677 9.32366 2.34177L9.39866 2.28344C9.43782 2.2401 9.48282 2.20427 9.53282 2.1751L9.62366 2.14177L9.76532 2.08344H10.1162C10.4295 2.11594 10.7053 2.30344 10.8495 2.58344L12.6987 6.30843C12.832 6.58094 13.0912 6.7701 13.3903 6.81593L17.532 7.41677C17.882 7.46677 18.1745 7.70844 18.2903 8.04177C18.3995 8.37594 18.3053 8.7426 18.0487 8.98343L14.932 11.9334Z" fill="#F8B432"/>
</svg>
