<svg width="121" height="32" viewBox="0 0 121 32" fill="none" xmlns="http://www.w3.org/2000/svg">
<path d="M19.5221 14.8695C19.4903 11.3371 22.4177 9.61852 22.5516 9.53852C20.8937 7.12402 18.3239 6.79412 17.4208 6.76782C15.2625 6.54095 13.169 8.05782 12.0695 8.05782C10.9481 8.05782 9.25509 6.78974 7.43036 6.827C5.08223 6.86317 2.88553 8.22112 1.68075 10.3298C-0.805626 14.6295 1.04873 20.9479 3.43087 24.4233C4.62249 26.1254 6.0149 28.0259 7.83744 27.959C9.62047 27.8856 10.2865 26.8236 12.4382 26.8236C14.5702 26.8236 15.1956 27.959 17.0544 27.9163C18.968 27.8856 20.1728 26.2065 21.3227 24.4891C22.6997 22.5382 23.2527 20.6169 23.2747 20.5183C23.2297 20.5029 19.5583 19.1033 19.5221 14.8695Z" fill="#302823"/>
<path d="M16.0106 4.48156C16.9696 3.28363 17.6258 1.65387 17.4437 0C16.0556 0.0613762 14.3198 0.959003 13.3202 2.13063C12.4358 3.16307 11.6458 4.85529 11.8499 6.44669C13.4091 6.56287 15.0099 5.66086 16.0106 4.48156Z" fill="#302823"/>
<path d="M45.3257 22.7994H42.8338L41.4688 18.5151H36.7243L35.4241 22.7994H32.998L37.6987 8.21375H40.602L45.3257 22.7994ZM41.0574 16.7176L39.823 12.909C39.6924 12.5199 39.4477 11.6037 39.0867 10.1613H39.0428C38.8991 10.7817 38.6676 11.6979 38.3493 12.909L37.1369 16.7176H41.0574Z" fill="#302823"/>
<path d="M57.4141 17.4114C57.4141 19.2 56.9302 20.6139 55.9625 21.6518C55.0956 22.5757 54.0192 23.0372 52.7343 23.0372C51.3474 23.0372 50.3511 22.5396 49.7443 21.5444H49.7004V27.0847H47.3611V15.7443C47.3611 14.6198 47.3315 13.4658 47.2744 12.2821H49.3318L49.4623 13.9491H49.5062C50.2864 12.6931 51.4703 12.0662 53.0591 12.0662C54.3012 12.0662 55.3381 12.5561 56.1677 13.537C56.9994 14.519 57.4141 15.8101 57.4141 17.4114ZM55.0309 17.4969C55.0309 16.4732 54.8005 15.6293 54.3374 14.9651C53.8316 14.2724 53.1524 13.9261 52.3009 13.9261C51.7238 13.9261 51.1993 14.119 50.7308 14.4993C50.2611 14.8829 49.9539 15.3838 49.8102 16.0041C49.7377 16.2934 49.7015 16.5302 49.7015 16.7165V18.4701C49.7015 19.2351 49.9364 19.8807 50.406 20.4078C50.8756 20.935 51.4857 21.1981 52.2362 21.1981C53.1173 21.1981 53.8031 20.8583 54.2935 20.181C54.7851 19.5025 55.0309 18.6082 55.0309 17.4969Z" fill="#302823"/>
<path d="M69.5244 17.4114C69.5244 19.2 69.0405 20.6139 68.0716 21.6518C67.2059 22.5757 66.1295 23.0372 64.8446 23.0372C63.4576 23.0372 62.4613 22.5396 61.8557 21.5444H61.8118V27.0847H59.4724V15.7443C59.4724 14.6198 59.4428 13.4658 59.3857 12.2821H61.4431L61.5737 13.9491H61.6176C62.3966 12.6931 63.5805 12.0662 65.1705 12.0662C66.4115 12.0662 67.4484 12.5561 68.2801 13.537C69.1085 14.519 69.5244 15.8101 69.5244 17.4114ZM67.1411 17.4969C67.1411 16.4732 66.9096 15.6293 66.4466 14.9651C65.9407 14.2724 65.2637 13.9261 64.4112 13.9261C63.8329 13.9261 63.3095 14.119 62.8399 14.4993C62.3703 14.8829 62.0641 15.3838 61.9204 16.0041C61.8491 16.2934 61.8118 16.5302 61.8118 16.7165V18.4701C61.8118 19.2351 62.0466 19.8807 62.514 20.4078C62.9836 20.9339 63.5937 21.1981 64.3464 21.1981C65.2275 21.1981 65.9133 20.8583 66.4038 20.181C66.8953 19.5025 67.1411 18.6082 67.1411 17.4969Z" fill="#302823"/>
<path d="M83.0648 18.709C83.0648 19.9497 82.6336 20.9591 81.7678 21.7384C80.8165 22.59 79.4921 23.0152 77.7903 23.0152C76.219 23.0152 74.9594 22.7128 74.0059 22.1067L74.5479 20.1591C75.5749 20.7794 76.7018 21.0907 77.9296 21.0907C78.8107 21.0907 79.4965 20.8912 79.9892 20.4944C80.4797 20.0977 80.7243 19.565 80.7243 18.9009C80.7243 18.309 80.5224 17.8103 80.1176 17.4059C79.7149 17.0015 79.0423 16.6255 78.103 16.2781C75.5464 15.3257 74.2692 13.9305 74.2692 12.0958C74.2692 10.8967 74.7169 9.91362 75.6133 9.14861C76.5065 8.38251 77.6981 8 79.1882 8C80.517 8 81.6208 8.23126 82.5019 8.69267L81.9171 10.5975C81.0941 10.1504 80.1636 9.92678 79.1224 9.92678C78.2994 9.92678 77.6564 10.1295 77.1956 10.5329C76.8061 10.8935 76.6107 11.3329 76.6107 11.8535C76.6107 12.43 76.8335 12.9068 77.2812 13.2816C77.6707 13.628 78.3784 14.0028 79.4054 14.4072C80.6618 14.9125 81.5846 15.5032 82.1782 16.1806C82.7696 16.8557 83.0648 17.7007 83.0648 18.709Z" fill="#302823"/>
<path d="M90.7991 14.0357H88.2205V19.142C88.2205 20.4408 88.6748 21.0896 89.5855 21.0896C90.0036 21.0896 90.3503 21.0534 90.6246 20.9811L90.6893 22.7555C90.2285 22.9276 89.6217 23.0142 88.8701 23.0142C87.9462 23.0142 87.2242 22.7325 86.703 22.1702C86.184 21.6069 85.9229 20.6621 85.9229 19.3349V14.0335H84.3867V12.2799H85.9229V10.3542L88.2205 9.66156V12.2799H90.7991V14.0357Z" fill="#302823"/>
<path d="M102.433 17.4541C102.433 19.0707 101.97 20.398 101.046 21.4359C100.077 22.5045 98.7914 23.0372 97.1883 23.0372C95.6434 23.0372 94.4134 22.5253 93.4961 21.5017C92.5788 20.478 92.1201 19.1858 92.1201 17.6284C92.1201 15.9986 92.5919 14.6637 93.5389 13.6258C94.4836 12.5868 95.7586 12.0673 97.3617 12.0673C98.9066 12.0673 100.15 12.5791 101.088 13.6039C101.986 14.5979 102.433 15.8814 102.433 17.4541ZM100.006 17.5297C100.006 16.5598 99.7987 15.7279 99.3784 15.0341C98.888 14.1946 98.1868 13.7759 97.2783 13.7759C96.338 13.7759 95.6236 14.1957 95.1332 15.0341C94.7129 15.729 94.5055 16.574 94.5055 17.5736C94.5055 18.5435 94.7129 19.3754 95.1332 20.0681C95.639 20.9076 96.3456 21.3263 97.2575 21.3263C98.1506 21.3263 98.8518 20.8989 99.3576 20.0462C99.7888 19.3392 100.006 18.4986 100.006 17.5297Z" fill="#302823"/>
<path d="M110.038 14.3371C109.806 14.2943 109.559 14.2724 109.3 14.2724C108.477 14.2724 107.841 14.5826 107.393 15.204C107.004 15.752 106.808 16.4447 106.808 17.2809V22.7993H104.47L104.492 15.5942C104.492 14.382 104.462 13.2783 104.404 12.2832H106.442L106.527 14.2954H106.592C106.839 13.6039 107.229 13.0471 107.762 12.6295C108.283 12.2536 108.846 12.0662 109.453 12.0662C109.669 12.0662 109.864 12.0815 110.038 12.1089V14.3371Z" fill="#302823"/>
<path d="M120.5 17.0431C120.5 17.4618 120.473 17.8147 120.414 18.103H113.396C113.424 19.142 113.763 19.9366 114.415 20.4846C115.006 20.9745 115.771 21.22 116.71 21.22C117.749 21.22 118.697 21.0545 119.55 20.7224L119.916 22.3445C118.92 22.7785 117.744 22.9944 116.386 22.9944C114.754 22.9944 113.472 22.5144 112.539 21.5554C111.609 20.5964 111.143 19.3086 111.143 17.6931C111.143 16.1071 111.576 14.7865 112.444 13.7332C113.352 12.6087 114.58 12.0464 116.125 12.0464C117.643 12.0464 118.792 12.6087 119.572 13.7332C120.189 14.6264 120.5 15.7312 120.5 17.0431ZM118.269 16.437C118.285 15.7444 118.132 15.1459 117.815 14.6407C117.41 13.9908 116.788 13.6663 115.951 13.6663C115.186 13.6663 114.564 13.9831 114.089 14.6188C113.699 15.124 113.468 15.7301 113.396 16.4359L118.269 16.437Z" fill="#302823"/>
</svg>
