<svg width="121" height="32" viewBox="0 0 121 32" fill="none" xmlns="http://www.w3.org/2000/svg">
<path d="M60.8735 13.8653C58.3891 13.8653 56.4223 15.7286 56.4223 18.3166C56.4223 20.801 58.3891 22.7678 60.8735 22.7678C63.3579 22.7678 65.3248 20.9045 65.3248 18.3166C65.3248 15.6251 63.3579 13.8653 60.8735 13.8653ZM60.8735 20.9045C59.5278 20.9045 58.3891 19.7658 58.3891 18.213C58.3891 16.6603 59.5278 15.5216 60.8735 15.5216C62.2192 15.5216 63.3579 16.5568 63.3579 18.213C63.3579 19.7658 62.2192 20.9045 60.8735 20.9045ZM51.2464 13.8653C48.762 13.8653 46.7952 15.7286 46.7952 18.3166C46.7952 20.801 48.762 22.7678 51.2464 22.7678C53.7308 22.7678 55.6976 20.9045 55.6976 18.3166C55.6976 15.6251 53.7308 13.8653 51.2464 13.8653ZM51.2464 20.9045C49.9007 20.9045 48.762 19.7658 48.762 18.213C48.762 16.6603 49.9007 15.5216 51.2464 15.5216C52.5921 15.5216 53.7308 16.5568 53.7308 18.213C53.7308 19.7658 52.5921 20.9045 51.2464 20.9045ZM39.756 15.211V17.0744H44.2072C44.1037 18.1095 43.6896 18.9377 43.172 19.4552C42.5509 20.0764 41.5158 20.801 39.756 20.801C36.961 20.801 34.8907 18.6271 34.8907 15.8321C34.8907 13.0372 37.0645 10.8633 39.756 10.8633C41.2052 10.8633 42.3439 11.4844 43.172 12.209L44.5178 10.8633C43.3791 9.82814 41.9298 9 39.8595 9C36.1329 9 32.9238 12.1055 32.9238 15.8321C32.9238 19.5588 36.1329 22.6643 39.8595 22.6643C41.9298 22.6643 43.3791 22.0432 44.6213 20.6975C45.8635 19.4552 46.2776 17.6955 46.2776 16.3497C46.2776 15.9357 46.2776 15.5216 46.174 15.211H39.756ZM86.7528 16.6603C86.3388 15.6251 85.3036 13.8653 83.0262 13.8653C80.7488 13.8653 78.8855 15.6251 78.8855 18.3166C78.8855 20.801 80.7488 22.7678 83.2332 22.7678C85.2001 22.7678 86.4423 21.5256 86.8563 20.801L85.4071 19.7658C84.8895 20.4904 84.2684 21.008 83.2332 21.008C82.1981 21.008 81.577 20.5939 81.0594 19.6623L86.9599 17.1779L86.7528 16.6603ZM80.7488 18.1095C80.7488 16.4532 82.0946 15.5216 83.0262 15.5216C83.7508 15.5216 84.4755 15.9357 84.6825 16.4532L80.7488 18.1095ZM75.8835 22.3537H77.8503V9.41407H75.8835V22.3537ZM72.778 14.797C72.2604 14.2794 71.4323 13.7618 70.3971 13.7618C68.2232 13.7618 66.1529 15.7286 66.1529 18.213C66.1529 20.6975 68.1197 22.5608 70.3971 22.5608C71.4323 22.5608 72.2604 22.0432 72.6745 21.5256H72.778V22.1467C72.778 23.803 71.8463 24.7346 70.3971 24.7346C69.2584 24.7346 68.4303 23.9065 68.2232 23.1819L66.567 23.9065C67.0845 25.0452 68.3268 26.4944 70.5006 26.4944C72.778 26.4944 74.6413 25.1487 74.6413 21.9397V14.0723H72.778V14.797ZM70.5006 20.9045C69.1549 20.9045 68.0162 19.7658 68.0162 18.213C68.0162 16.6603 69.1549 15.5216 70.5006 15.5216C71.8463 15.5216 72.8815 16.6603 72.8815 18.213C72.8815 19.7658 71.8463 20.9045 70.5006 20.9045ZM95.7588 9.41407H91.1006V22.3537H93.0674V17.4884H95.7588C97.9327 17.4884 100.003 15.9357 100.003 13.4512C100.003 10.9668 97.9327 9.41407 95.7588 9.41407ZM95.8624 15.6251H93.0674V11.1739H95.8624C97.3116 11.1739 98.1397 12.4161 98.1397 13.3477C98.0362 14.4864 97.2081 15.6251 95.8624 15.6251ZM107.767 13.7618C106.318 13.7618 104.868 14.3829 104.351 15.7286L106.111 16.4532C106.525 15.7286 107.146 15.5216 107.87 15.5216C108.906 15.5216 109.837 16.1427 109.941 17.1779V17.2814C109.63 17.0744 108.802 16.7638 107.974 16.7638C106.111 16.7638 104.247 17.799 104.247 19.6623C104.247 21.4221 105.8 22.5608 107.456 22.5608C108.802 22.5608 109.423 21.9397 109.941 21.3186H110.044V22.3537H111.908V17.3849C111.701 15.1075 109.941 13.7618 107.767 13.7618ZM107.56 20.9045C106.939 20.9045 106.007 20.5939 106.007 19.7658C106.007 18.7306 107.146 18.4201 108.077 18.4201C108.906 18.4201 109.32 18.6271 109.837 18.8341C109.63 20.0764 108.595 20.9045 107.56 20.9045ZM118.429 14.0723L116.255 19.6623H116.152L113.874 14.0723H111.804L115.22 21.9397L113.253 26.2874H115.22L120.499 14.0723H118.429ZM101.038 22.3537H103.005V9.41407H101.038V22.3537Z" fill="#302823"/>
<path d="M1.14454 2.92365C0.833986 3.2342 0.730469 3.75178 0.730469 4.37289V27.2502C0.730469 27.8713 0.937503 28.3889 1.24806 28.6995L1.35157 28.803L14.1877 15.9668V15.7598L1.14454 2.92365Z" fill="url(#paint0_linear_116_7580)"/>
<path d="M18.3282 20.3146L14.084 16.0704V15.7598L18.3282 11.5156L18.4317 11.6191L23.5041 14.5176C24.9533 15.3458 24.9533 16.6915 23.5041 17.5196L18.3282 20.3146Z" fill="url(#paint1_linear_116_7580)"/>
<path d="M18.4319 20.2111L14.0842 15.8634L1.14453 28.8031C1.66212 29.3207 2.38674 29.3207 3.3184 28.9066L18.4319 20.2111Z" fill="url(#paint2_linear_116_7580)"/>
<path d="M18.4319 11.5157L3.3184 2.92372C2.38674 2.40614 1.66212 2.50965 1.14453 3.02724L14.0842 15.8634L18.4319 11.5157Z" fill="url(#paint3_linear_116_7580)"/>
<path opacity="0.2" d="M18.3284 20.1076L3.3184 28.596C2.49026 29.1136 1.76564 29.0101 1.24805 28.596L1.14453 28.6995L1.24805 28.8031C1.76564 29.2171 2.49026 29.3206 3.3184 28.8031L18.3284 20.1076Z" fill="#534E4A"/>
<path opacity="0.12" d="M1.14454 28.596C0.833986 28.2855 0.730469 27.7679 0.730469 27.1468V27.2503C0.730469 27.8714 0.937503 28.389 1.24806 28.6996V28.596H1.14454ZM23.5043 17.2091L18.3284 20.1076L18.4319 20.2111L23.5043 17.3126C24.2289 16.8986 24.5395 16.381 24.5395 15.8634C24.5395 16.381 24.1254 16.7951 23.5043 17.2091Z" fill="#534E4A"/>
<path opacity="0.25" d="M3.3184 3.02721L23.5043 14.5176C24.1254 14.9317 24.5395 15.3458 24.5395 15.8634C24.5395 15.3458 24.2289 14.8282 23.5043 14.4141L3.3184 2.92369C1.86916 2.09555 0.730469 2.71666 0.730469 4.37293V4.47645C0.730469 2.92369 1.86916 2.19907 3.3184 3.02721Z" fill="#302823"/>
<defs>
<linearGradient id="paint0_linear_116_7580" x1="12.9455" y1="4.1762" x2="-4.4278" y2="21.5485" gradientUnits="userSpaceOnUse">
<stop stop-color="#00A0FF"/>
<stop offset="0.007" stop-color="#00A1FF"/>
<stop offset="0.26" stop-color="#00BEFF"/>
<stop offset="0.512" stop-color="#00D2FF"/>
<stop offset="0.76" stop-color="#00DFFF"/>
<stop offset="1" stop-color="#00E3FF"/>
</linearGradient>
<linearGradient id="paint1_linear_116_7580" x1="25.4026" y1="15.8644" x2="0.354482" y2="15.8644" gradientUnits="userSpaceOnUse">
<stop stop-color="#FFE000"/>
<stop offset="0.409" stop-color="#FFBD00"/>
<stop offset="0.775" stop-color="#FFA500"/>
<stop offset="1" stop-color="#FF9C00"/>
</linearGradient>
<linearGradient id="paint2_linear_116_7580" x1="16.079" y1="18.2402" x2="-7.4795" y2="41.7986" gradientUnits="userSpaceOnUse">
<stop stop-color="#FF3A44"/>
<stop offset="1" stop-color="#C31162"/>
</linearGradient>
<linearGradient id="paint3_linear_116_7580" x1="-2.06761" y1="-4.65789" x2="8.45286" y2="5.86258" gradientUnits="userSpaceOnUse">
<stop stop-color="#32A071"/>
<stop offset="0.069" stop-color="#2DA771"/>
<stop offset="0.476" stop-color="#15CF74"/>
<stop offset="0.801" stop-color="#06E775"/>
<stop offset="1" stop-color="#00F076"/>
</linearGradient>
</defs>
</svg>
