<svg width="356" height="181" viewBox="0 0 356 181" fill="none" xmlns="http://www.w3.org/2000/svg">
<path d="M355 1L2 1" stroke="#F5EADE" stroke-linecap="round"/>
<path d="M355 23.8572L2 23.8572" stroke="#F5EADE" stroke-linecap="round"/>
<path d="M355 46.7142L2 46.7142" stroke="#F5EADE" stroke-linecap="round"/>
<path d="M355 69.5714L2 69.5714" stroke="#F5EADE" stroke-linecap="round"/>
<path d="M355 92.4286L2 92.4286" stroke="#F5EADE" stroke-linecap="round"/>
<path d="M355 115.286L2 115.286" stroke="#F5EADE" stroke-linecap="round"/>
<path d="M355 138.143L2 138.143" stroke="#F5EADE" stroke-linecap="round"/>
<path d="M355 161L2 161" stroke="#F5EADE" stroke-linecap="round"/>
<rect opacity="0.5" x="201" y="1" width="64" height="180" fill="url(#paint0_linear_116_7596)"/>
<path d="M2 114.154C38.7951 114.154 32.7541 138 69 138C105.246 138 105.246 114.154 136 114.154C166.754 114.154 170.242 90.8982 203.193 90.8982C236.143 90.8982 232.656 69.7338 270 69.7365C307.344 69.7393 302.402 24 337 24" stroke="url(#paint1_linear_116_7596)" stroke-width="4" stroke-linecap="round" stroke-linejoin="round"/>
<circle cx="68.5" cy="138" r="5" fill="#DC9C68"/>
<path d="M54.9043 150.965V152.174H52.4993V160H51.0173V152.174H48.5993V150.965H54.9043ZM59.5122 160.117C58.8362 160.117 58.2252 159.965 57.6792 159.662C57.1332 159.35 56.7042 158.917 56.3922 158.362C56.0802 157.799 55.9242 157.149 55.9242 156.412C55.9242 155.684 56.0845 155.038 56.4052 154.475C56.7258 153.912 57.1635 153.478 57.7182 153.175C58.2728 152.872 58.8925 152.72 59.5772 152.72C60.2618 152.72 60.8815 152.872 61.4362 153.175C61.9908 153.478 62.4285 153.912 62.7492 154.475C63.0698 155.038 63.2302 155.684 63.2302 156.412C63.2302 157.14 63.0655 157.786 62.7362 158.349C62.4068 158.912 61.9562 159.35 61.3842 159.662C60.8208 159.965 60.1968 160.117 59.5122 160.117ZM59.5122 158.83C59.8935 158.83 60.2488 158.739 60.5782 158.557C60.9162 158.375 61.1892 158.102 61.3972 157.738C61.6052 157.374 61.7092 156.932 61.7092 156.412C61.7092 155.892 61.6095 155.454 61.4102 155.099C61.2108 154.735 60.9465 154.462 60.6172 154.28C60.2878 154.098 59.9325 154.007 59.5512 154.007C59.1698 154.007 58.8145 154.098 58.4852 154.28C58.1645 154.462 57.9088 154.735 57.7182 155.099C57.5275 155.454 57.4322 155.892 57.4322 156.412C57.4322 157.183 57.6272 157.781 58.0172 158.206C58.4158 158.622 58.9142 158.83 59.5122 158.83ZM64.2012 156.386C64.2012 155.667 64.3485 155.03 64.6432 154.475C64.9465 153.92 65.3539 153.491 65.8652 153.188C66.3852 152.876 66.9615 152.72 67.5942 152.72C68.0622 152.72 68.5215 152.824 68.9722 153.032C69.4315 153.231 69.7955 153.5 70.0642 153.838V150.38H71.5592V160H70.0642V158.921C69.8215 159.268 69.4835 159.554 69.0502 159.779C68.6255 160.004 68.1359 160.117 67.5812 160.117C66.9572 160.117 66.3852 159.961 65.8652 159.649C65.3539 159.328 64.9465 158.886 64.6432 158.323C64.3485 157.751 64.2012 157.105 64.2012 156.386ZM70.0642 156.412C70.0642 155.918 69.9602 155.489 69.7522 155.125C69.5529 154.761 69.2885 154.484 68.9592 154.293C68.6299 154.102 68.2745 154.007 67.8932 154.007C67.5119 154.007 67.1565 154.102 66.8272 154.293C66.4979 154.475 66.2292 154.748 66.0212 155.112C65.8219 155.467 65.7222 155.892 65.7222 156.386C65.7222 156.88 65.8219 157.313 66.0212 157.686C66.2292 158.059 66.4979 158.345 66.8272 158.544C67.1652 158.735 67.5205 158.83 67.8932 158.83C68.2745 158.83 68.6299 158.735 68.9592 158.544C69.2885 158.353 69.5529 158.076 69.7522 157.712C69.9602 157.339 70.0642 156.906 70.0642 156.412ZM73.0118 156.386C73.0118 155.667 73.1591 155.03 73.4538 154.475C73.7571 153.92 74.1644 153.491 74.6758 153.188C75.1958 152.876 75.7678 152.72 76.3918 152.72C76.9551 152.72 77.4448 152.833 77.8608 153.058C78.2854 153.275 78.6234 153.548 78.8748 153.877V152.837H80.3698V160H78.8748V158.934C78.6234 159.272 78.2811 159.554 77.8478 159.779C77.4144 160.004 76.9204 160.117 76.3658 160.117C75.7504 160.117 75.1871 159.961 74.6758 159.649C74.1644 159.328 73.7571 158.886 73.4538 158.323C73.1591 157.751 73.0118 157.105 73.0118 156.386ZM78.8748 156.412C78.8748 155.918 78.7708 155.489 78.5628 155.125C78.3634 154.761 78.0991 154.484 77.7698 154.293C77.4404 154.102 77.0851 154.007 76.7038 154.007C76.3224 154.007 75.9671 154.102 75.6378 154.293C75.3084 154.475 75.0398 154.748 74.8318 155.112C74.6324 155.467 74.5328 155.892 74.5328 156.386C74.5328 156.88 74.6324 157.313 74.8318 157.686C75.0398 158.059 75.3084 158.345 75.6378 158.544C75.9758 158.735 76.3311 158.83 76.7038 158.83C77.0851 158.83 77.4404 158.735 77.7698 158.544C78.0991 158.353 78.3634 158.076 78.5628 157.712C78.7708 157.339 78.8748 156.906 78.8748 156.412ZM88.7643 152.837L84.3703 163.367H82.8363L84.2923 159.883L81.4713 152.837H83.1223L85.1373 158.297L87.2303 152.837H88.7643Z" fill="#988D85"/>
<circle cx="233" cy="82" r="15" fill="#F8EFE5" fill-opacity="0.7" stroke="#BEC574" stroke-width="2"/>
<circle cx="233" cy="82" r="8" fill="#BEC574"/>
<path d="M225.874 105.965L222.884 111.724V115H221.402V111.724L218.399 105.965H220.05L222.143 110.398L224.236 105.965H225.874ZM230.157 115.117C229.481 115.117 228.87 114.965 228.324 114.662C227.778 114.35 227.349 113.917 227.037 113.362C226.725 112.799 226.569 112.149 226.569 111.412C226.569 110.684 226.729 110.038 227.05 109.475C227.37 108.912 227.808 108.478 228.363 108.175C228.917 107.872 229.537 107.72 230.222 107.72C230.906 107.72 231.526 107.872 232.081 108.175C232.635 108.478 233.073 108.912 233.394 109.475C233.714 110.038 233.875 110.684 233.875 111.412C233.875 112.14 233.71 112.786 233.381 113.349C233.051 113.912 232.601 114.35 232.029 114.662C231.465 114.965 230.841 115.117 230.157 115.117ZM230.157 113.83C230.538 113.83 230.893 113.739 231.223 113.557C231.561 113.375 231.834 113.102 232.042 112.738C232.25 112.374 232.354 111.932 232.354 111.412C232.354 110.892 232.254 110.454 232.055 110.099C231.855 109.735 231.591 109.462 231.262 109.28C230.932 109.098 230.577 109.007 230.196 109.007C229.814 109.007 229.459 109.098 229.13 109.28C228.809 109.462 228.553 109.735 228.363 110.099C228.172 110.454 228.077 110.892 228.077 111.412C228.077 112.183 228.272 112.781 228.662 113.206C229.06 113.622 229.559 113.83 230.157 113.83ZM241.827 107.837V115H240.345V114.155C240.111 114.45 239.803 114.684 239.422 114.857C239.049 115.022 238.65 115.104 238.226 115.104C237.662 115.104 237.155 114.987 236.705 114.753C236.263 114.519 235.912 114.172 235.652 113.713C235.4 113.254 235.275 112.699 235.275 112.049V107.837H236.744V111.828C236.744 112.469 236.904 112.963 237.225 113.31C237.545 113.648 237.983 113.817 238.538 113.817C239.092 113.817 239.53 113.648 239.851 113.31C240.18 112.963 240.345 112.469 240.345 111.828V107.837H241.827ZM245.264 108.877C245.481 108.513 245.767 108.231 246.122 108.032C246.486 107.824 246.915 107.72 247.409 107.72V109.254H247.032C246.451 109.254 246.009 109.401 245.706 109.696C245.411 109.991 245.264 110.502 245.264 111.23V115H243.782V107.837H245.264V108.877ZM215.55 125.046V129.011C215.55 129.28 215.611 129.475 215.732 129.596C215.862 129.709 216.079 129.765 216.382 129.765H217.292V131H216.122C215.455 131 214.944 130.844 214.588 130.532C214.233 130.22 214.055 129.713 214.055 129.011V125.046H213.21V123.837H214.055V122.056H215.55V123.837H217.292V125.046H215.55ZM218.164 127.386C218.164 126.667 218.311 126.03 218.606 125.475C218.909 124.92 219.317 124.491 219.828 124.188C220.348 123.876 220.92 123.72 221.544 123.72C222.107 123.72 222.597 123.833 223.013 124.058C223.438 124.275 223.776 124.548 224.027 124.877V123.837H225.522V131H224.027V129.934C223.776 130.272 223.433 130.554 223 130.779C222.567 131.004 222.073 131.117 221.518 131.117C220.903 131.117 220.339 130.961 219.828 130.649C219.317 130.328 218.909 129.886 218.606 129.323C218.311 128.751 218.164 128.105 218.164 127.386ZM224.027 127.412C224.027 126.918 223.923 126.489 223.715 126.125C223.516 125.761 223.251 125.484 222.922 125.293C222.593 125.102 222.237 125.007 221.856 125.007C221.475 125.007 221.119 125.102 220.79 125.293C220.461 125.475 220.192 125.748 219.984 126.112C219.785 126.467 219.685 126.892 219.685 127.386C219.685 127.88 219.785 128.313 219.984 128.686C220.192 129.059 220.461 129.345 220.79 129.544C221.128 129.735 221.483 129.83 221.856 129.83C222.237 129.83 222.593 129.735 222.922 129.544C223.251 129.353 223.516 129.076 223.715 128.712C223.923 128.339 224.027 127.906 224.027 127.412ZM228.951 124.877C229.167 124.513 229.453 124.231 229.809 124.032C230.173 123.824 230.602 123.72 231.096 123.72V125.254H230.719C230.138 125.254 229.696 125.401 229.393 125.696C229.098 125.991 228.951 126.502 228.951 127.23V131H227.469V123.837H228.951V124.877ZM235.344 123.72C235.899 123.72 236.388 123.833 236.813 124.058C237.246 124.275 237.584 124.548 237.827 124.877V123.837H239.322V131.117C239.322 131.776 239.183 132.361 238.906 132.872C238.629 133.392 238.226 133.799 237.697 134.094C237.177 134.389 236.553 134.536 235.825 134.536C234.854 134.536 234.048 134.306 233.407 133.847C232.766 133.396 232.402 132.781 232.315 132.001H233.784C233.897 132.374 234.135 132.673 234.499 132.898C234.872 133.132 235.314 133.249 235.825 133.249C236.423 133.249 236.904 133.067 237.268 132.703C237.641 132.339 237.827 131.81 237.827 131.117V129.921C237.576 130.259 237.233 130.545 236.8 130.779C236.375 131.004 235.89 131.117 235.344 131.117C234.72 131.117 234.148 130.961 233.628 130.649C233.117 130.328 232.709 129.886 232.406 129.323C232.111 128.751 231.964 128.105 231.964 127.386C231.964 126.667 232.111 126.03 232.406 125.475C232.709 124.92 233.117 124.491 233.628 124.188C234.148 123.876 234.72 123.72 235.344 123.72ZM237.827 127.412C237.827 126.918 237.723 126.489 237.515 126.125C237.316 125.761 237.051 125.484 236.722 125.293C236.393 125.102 236.037 125.007 235.656 125.007C235.275 125.007 234.919 125.102 234.59 125.293C234.261 125.475 233.992 125.748 233.784 126.112C233.585 126.467 233.485 126.892 233.485 127.386C233.485 127.88 233.585 128.313 233.784 128.686C233.992 129.059 234.261 129.345 234.59 129.544C234.928 129.735 235.283 129.83 235.656 129.83C236.037 129.83 236.393 129.735 236.722 129.544C237.051 129.353 237.316 129.076 237.515 128.712C237.723 128.339 237.827 127.906 237.827 127.412ZM247.833 127.243C247.833 127.512 247.816 127.754 247.781 127.971H242.308C242.352 128.543 242.564 129.002 242.945 129.349C243.327 129.696 243.795 129.869 244.349 129.869C245.147 129.869 245.71 129.535 246.039 128.868H247.638C247.422 129.527 247.027 130.068 246.455 130.493C245.892 130.909 245.19 131.117 244.349 131.117C243.665 131.117 243.049 130.965 242.503 130.662C241.966 130.35 241.541 129.917 241.229 129.362C240.926 128.799 240.774 128.149 240.774 127.412C240.774 126.675 240.922 126.03 241.216 125.475C241.52 124.912 241.94 124.478 242.477 124.175C243.023 123.872 243.647 123.72 244.349 123.72C245.025 123.72 245.628 123.867 246.156 124.162C246.685 124.457 247.097 124.873 247.391 125.41C247.686 125.939 247.833 126.55 247.833 127.243ZM246.286 126.775C246.278 126.229 246.083 125.791 245.701 125.462C245.32 125.133 244.848 124.968 244.284 124.968C243.773 124.968 243.335 125.133 242.971 125.462C242.607 125.783 242.391 126.22 242.321 126.775H246.286ZM251.021 125.046V129.011C251.021 129.28 251.082 129.475 251.203 129.596C251.333 129.709 251.55 129.765 251.853 129.765H252.763V131H251.593C250.926 131 250.414 130.844 250.059 130.532C249.704 130.22 249.526 129.713 249.526 129.011V125.046H248.681V123.837H249.526V122.056H251.021V123.837H252.763V125.046H251.021Z" fill="#988D85"/>
<circle cx="337" cy="24" r="5" fill="#83AC52"/>
<path d="M330.283 46.091C329.442 46.091 328.667 45.896 327.956 45.506C327.254 45.1073 326.695 44.557 326.279 43.855C325.872 43.1443 325.668 42.347 325.668 41.463C325.668 40.579 325.872 39.786 326.279 39.084C326.695 38.382 327.254 37.836 327.956 37.446C328.667 37.0473 329.442 36.848 330.283 36.848C331.132 36.848 331.908 37.0473 332.61 37.446C333.321 37.836 333.88 38.382 334.287 39.084C334.694 39.786 334.898 40.579 334.898 41.463C334.898 42.347 334.694 43.1443 334.287 43.855C333.88 44.557 333.321 45.1073 332.61 45.506C331.908 45.896 331.132 46.091 330.283 46.091ZM330.283 44.804C330.881 44.804 331.414 44.6697 331.882 44.401C332.35 44.1237 332.714 43.7337 332.974 43.231C333.243 42.7197 333.377 42.1303 333.377 41.463C333.377 40.7957 333.243 40.2107 332.974 39.708C332.714 39.2053 332.35 38.8197 331.882 38.551C331.414 38.2823 330.881 38.148 330.283 38.148C329.685 38.148 329.152 38.2823 328.684 38.551C328.216 38.8197 327.848 39.2053 327.579 39.708C327.319 40.2107 327.189 40.7957 327.189 41.463C327.189 42.1303 327.319 42.7197 327.579 43.231C327.848 43.7337 328.216 44.1237 328.684 44.401C329.152 44.6697 329.685 44.804 330.283 44.804ZM342.843 38.837V46H341.361V45.155C341.127 45.4497 340.82 45.6837 340.438 45.857C340.066 46.0217 339.667 46.104 339.242 46.104C338.679 46.104 338.172 45.987 337.721 45.753C337.279 45.519 336.928 45.1723 336.668 44.713C336.417 44.2537 336.291 43.699 336.291 43.049V38.837H337.76V42.828C337.76 43.4693 337.921 43.9633 338.241 44.31C338.562 44.648 339 44.817 339.554 44.817C340.109 44.817 340.547 44.648 340.867 44.31C341.197 43.9633 341.361 43.4693 341.361 42.828V38.837H342.843ZM346.281 39.877C346.497 39.513 346.783 39.2313 347.139 39.032C347.503 38.824 347.932 38.72 348.426 38.72V40.254H348.049C347.468 40.254 347.026 40.4013 346.723 40.696C346.428 40.9907 346.281 41.502 346.281 42.23V46H344.799V38.837H346.281V39.877ZM326.79 54.837V62H325.308V61.155C325.074 61.4497 324.766 61.6837 324.385 61.857C324.012 62.0217 323.614 62.104 323.189 62.104C322.626 62.104 322.119 61.987 321.668 61.753C321.226 61.519 320.875 61.1723 320.615 60.713C320.364 60.2537 320.238 59.699 320.238 59.049V54.837H321.707V58.828C321.707 59.4693 321.867 59.9633 322.188 60.31C322.509 60.648 322.946 60.817 323.501 60.817C324.056 60.817 324.493 60.648 324.814 60.31C325.143 59.9633 325.308 59.4693 325.308 58.828V54.837H326.79ZM331.346 62.117C330.782 62.117 330.275 62.0173 329.825 61.818C329.383 61.61 329.032 61.3327 328.772 60.986C328.512 60.6307 328.373 60.2363 328.356 59.803H329.89C329.916 60.1063 330.059 60.362 330.319 60.57C330.587 60.7693 330.921 60.869 331.32 60.869C331.736 60.869 332.056 60.791 332.282 60.635C332.516 60.4703 332.633 60.2623 332.633 60.011C332.633 59.7423 332.503 59.543 332.243 59.413C331.991 59.283 331.588 59.14 331.034 58.984C330.496 58.8367 330.059 58.6937 329.721 58.555C329.383 58.4163 329.088 58.204 328.837 57.918C328.594 57.632 328.473 57.255 328.473 56.787C328.473 56.4057 328.585 56.059 328.811 55.747C329.036 55.4263 329.357 55.175 329.773 54.993C330.197 54.811 330.683 54.72 331.229 54.72C332.043 54.72 332.698 54.928 333.192 55.344C333.694 55.7513 333.963 56.3103 333.998 57.021H332.516C332.49 56.7003 332.36 56.4447 332.126 56.254C331.892 56.0633 331.575 55.968 331.177 55.968C330.787 55.968 330.488 56.0417 330.28 56.189C330.072 56.3363 329.968 56.5313 329.968 56.774C329.968 56.9647 330.037 57.125 330.176 57.255C330.314 57.385 330.483 57.489 330.683 57.567C330.882 57.6363 331.177 57.7273 331.567 57.84C332.087 57.9787 332.511 58.1217 332.841 58.269C333.179 58.4077 333.469 58.6157 333.712 58.893C333.954 59.1703 334.08 59.5387 334.089 59.998C334.089 60.4053 333.976 60.7693 333.751 61.09C333.525 61.4107 333.205 61.662 332.789 61.844C332.381 62.026 331.9 62.117 331.346 62.117ZM342.255 58.243C342.255 58.5117 342.238 58.7543 342.203 58.971H336.73C336.773 59.543 336.986 60.0023 337.367 60.349C337.748 60.6957 338.216 60.869 338.771 60.869C339.568 60.869 340.132 60.5353 340.461 59.868H342.06C341.843 60.5267 341.449 61.0683 340.877 61.493C340.314 61.909 339.612 62.117 338.771 62.117C338.086 62.117 337.471 61.9653 336.925 61.662C336.388 61.35 335.963 60.9167 335.651 60.362C335.348 59.7987 335.196 59.1487 335.196 58.412C335.196 57.6753 335.343 57.0297 335.638 56.475C335.941 55.9117 336.362 55.4783 336.899 55.175C337.445 54.8717 338.069 54.72 338.771 54.72C339.447 54.72 340.049 54.8673 340.578 55.162C341.107 55.4567 341.518 55.8727 341.813 56.41C342.108 56.9387 342.255 57.5497 342.255 58.243ZM340.708 57.775C340.699 57.229 340.504 56.7913 340.123 56.462C339.742 56.1327 339.269 55.968 338.706 55.968C338.195 55.968 337.757 56.1327 337.393 56.462C337.029 56.7827 336.812 57.2203 336.743 57.775H340.708ZM345.195 55.877C345.412 55.513 345.698 55.2313 346.053 55.032C346.417 54.824 346.846 54.72 347.34 54.72V56.254H346.963C346.383 56.254 345.941 56.4013 345.637 56.696C345.343 56.9907 345.195 57.502 345.195 58.23V62H343.713V54.837H345.195V55.877ZM351.303 62.117C350.739 62.117 350.232 62.0173 349.782 61.818C349.34 61.61 348.989 61.3327 348.729 60.986C348.469 60.6307 348.33 60.2363 348.313 59.803H349.847C349.873 60.1063 350.016 60.362 350.276 60.57C350.544 60.7693 350.878 60.869 351.277 60.869C351.693 60.869 352.013 60.791 352.239 60.635C352.473 60.4703 352.59 60.2623 352.59 60.011C352.59 59.7423 352.46 59.543 352.2 59.413C351.948 59.283 351.545 59.14 350.991 58.984C350.453 58.8367 350.016 58.6937 349.678 58.555C349.34 58.4163 349.045 58.204 348.794 57.918C348.551 57.632 348.43 57.255 348.43 56.787C348.43 56.4057 348.542 56.059 348.768 55.747C348.993 55.4263 349.314 55.175 349.73 54.993C350.154 54.811 350.64 54.72 351.186 54.72C352 54.72 352.655 54.928 353.149 55.344C353.651 55.7513 353.92 56.3103 353.955 57.021H352.473C352.447 56.7003 352.317 56.4447 352.083 56.254C351.849 56.0633 351.532 55.968 351.134 55.968C350.744 55.968 350.445 56.0417 350.237 56.189C350.029 56.3363 349.925 56.5313 349.925 56.774C349.925 56.9647 349.994 57.125 350.133 57.255C350.271 57.385 350.44 57.489 350.64 57.567C350.839 57.6363 351.134 57.7273 351.524 57.84C352.044 57.9787 352.468 58.1217 352.798 58.269C353.136 58.4077 353.426 58.6157 353.669 58.893C353.911 59.1703 354.037 59.5387 354.046 59.998C354.046 60.4053 353.933 60.7693 353.708 61.09C353.482 61.4107 353.162 61.662 352.746 61.844C352.338 62.026 351.857 62.117 351.303 62.117Z" fill="#988D85"/>
<defs>
<linearGradient id="paint0_linear_116_7596" x1="233" y1="1" x2="233" y2="181" gradientUnits="userSpaceOnUse">
<stop stop-color="#F5EADE" stop-opacity="0"/>
<stop offset="0.0989583" stop-color="#F1E5DA"/>
<stop offset="0.895833" stop-color="#F1E5DA"/>
<stop offset="1" stop-color="#F5EADE" stop-opacity="0"/>
</linearGradient>
<linearGradient id="paint1_linear_116_7596" x1="2" y1="114.511" x2="337" y2="114.511" gradientUnits="userSpaceOnUse">
<stop stop-color="#CC5D45"/>
<stop offset="0.505208" stop-color="#EED863"/>
<stop offset="1" stop-color="#8BB669"/>
</linearGradient>
</defs>
</svg>
