<svg width="356" height="235" viewBox="0 0 356 235" fill="none" xmlns="http://www.w3.org/2000/svg">
<path d="M355 1L2 1" stroke="#F5EADE" stroke-linecap="round"/>
<path d="M355 34.2857L2 34.2857" stroke="#F5EADE" stroke-linecap="round"/>
<path d="M355 67.5714L2 67.5714" stroke="#F5EADE" stroke-linecap="round"/>
<path d="M355 100.857L2 100.857" stroke="#F5EADE" stroke-linecap="round"/>
<path d="M355 134.143L2 134.143" stroke="#F5EADE" stroke-linecap="round"/>
<path d="M355 167.429L2 167.429" stroke="#F5EADE" stroke-linecap="round"/>
<path d="M355 200.714L2 200.714" stroke="#F5EADE" stroke-linecap="round"/>
<path d="M355 234L2 234" stroke="#F5EADE" stroke-linecap="round"/>
<rect opacity="0.5" x="238" y="1" width="64" height="233" fill="url(#paint0_linear_116_7117)"/>
<path d="M2 166.067C38.5754 166.067 32.5705 201 68.6 201C104.63 201 104.63 166.067 135.2 166.067C165.77 166.067 169.237 132 201.991 132C234.745 132 231.279 100.996 268.4 101C305.521 101.004 300.608 34 335 34" stroke="url(#paint1_linear_116_7117)" stroke-width="4" stroke-linecap="round" stroke-linejoin="round"/>
<path d="M70.6958 174.744L66.2478 185H64.4078L68.9038 174.936H62.9838V173.384H70.6958V174.744ZM72.0329 182.568V181.192L77.4089 173.48H79.6169V180.984H81.1049V182.568H79.6169V185H77.8249V182.568H72.0329ZM77.9049 175.336L74.1289 180.984H77.9049V175.336Z" fill="#302823"/>
<circle cx="72" cy="200" r="5" fill="#DC9C68"/>
<path d="M58.4043 212.965V214.174H55.9993V222H54.5173V214.174H52.0993V212.965H58.4043ZM63.0122 222.117C62.3362 222.117 61.7252 221.965 61.1792 221.662C60.6332 221.35 60.2042 220.917 59.8922 220.362C59.5802 219.799 59.4242 219.149 59.4242 218.412C59.4242 217.684 59.5845 217.038 59.9052 216.475C60.2258 215.912 60.6635 215.478 61.2182 215.175C61.7728 214.872 62.3925 214.72 63.0772 214.72C63.7618 214.72 64.3815 214.872 64.9362 215.175C65.4908 215.478 65.9285 215.912 66.2492 216.475C66.5698 217.038 66.7302 217.684 66.7302 218.412C66.7302 219.14 66.5655 219.786 66.2362 220.349C65.9068 220.912 65.4562 221.35 64.8842 221.662C64.3208 221.965 63.6968 222.117 63.0122 222.117ZM63.0122 220.83C63.3935 220.83 63.7488 220.739 64.0782 220.557C64.4162 220.375 64.6892 220.102 64.8972 219.738C65.1052 219.374 65.2092 218.932 65.2092 218.412C65.2092 217.892 65.1095 217.454 64.9102 217.099C64.7108 216.735 64.4465 216.462 64.1172 216.28C63.7878 216.098 63.4325 216.007 63.0512 216.007C62.6698 216.007 62.3145 216.098 61.9852 216.28C61.6645 216.462 61.4088 216.735 61.2182 217.099C61.0275 217.454 60.9322 217.892 60.9322 218.412C60.9322 219.183 61.1272 219.781 61.5172 220.206C61.9158 220.622 62.4142 220.83 63.0122 220.83ZM67.7012 218.386C67.7012 217.667 67.8485 217.03 68.1432 216.475C68.4465 215.92 68.8539 215.491 69.3652 215.188C69.8852 214.876 70.4615 214.72 71.0942 214.72C71.5622 214.72 72.0215 214.824 72.4722 215.032C72.9315 215.231 73.2955 215.5 73.5642 215.838V212.38H75.0592V222H73.5642V220.921C73.3215 221.268 72.9835 221.554 72.5502 221.779C72.1255 222.004 71.6359 222.117 71.0812 222.117C70.4572 222.117 69.8852 221.961 69.3652 221.649C68.8539 221.328 68.4465 220.886 68.1432 220.323C67.8485 219.751 67.7012 219.105 67.7012 218.386ZM73.5642 218.412C73.5642 217.918 73.4602 217.489 73.2522 217.125C73.0529 216.761 72.7885 216.484 72.4592 216.293C72.1299 216.102 71.7745 216.007 71.3932 216.007C71.0119 216.007 70.6565 216.102 70.3272 216.293C69.9979 216.475 69.7292 216.748 69.5212 217.112C69.3219 217.467 69.2222 217.892 69.2222 218.386C69.2222 218.88 69.3219 219.313 69.5212 219.686C69.7292 220.059 69.9979 220.345 70.3272 220.544C70.6652 220.735 71.0205 220.83 71.3932 220.83C71.7745 220.83 72.1299 220.735 72.4592 220.544C72.7885 220.353 73.0529 220.076 73.2522 219.712C73.4602 219.339 73.5642 218.906 73.5642 218.412ZM76.5118 218.386C76.5118 217.667 76.6591 217.03 76.9538 216.475C77.2571 215.92 77.6644 215.491 78.1758 215.188C78.6958 214.876 79.2678 214.72 79.8918 214.72C80.4551 214.72 80.9448 214.833 81.3608 215.058C81.7854 215.275 82.1234 215.548 82.3748 215.877V214.837H83.8698V222H82.3748V220.934C82.1234 221.272 81.7811 221.554 81.3478 221.779C80.9144 222.004 80.4204 222.117 79.8658 222.117C79.2504 222.117 78.6871 221.961 78.1758 221.649C77.6644 221.328 77.2571 220.886 76.9538 220.323C76.6591 219.751 76.5118 219.105 76.5118 218.386ZM82.3748 218.412C82.3748 217.918 82.2708 217.489 82.0628 217.125C81.8634 216.761 81.5991 216.484 81.2698 216.293C80.9404 216.102 80.5851 216.007 80.2038 216.007C79.8224 216.007 79.4671 216.102 79.1378 216.293C78.8084 216.475 78.5398 216.748 78.3318 217.112C78.1324 217.467 78.0328 217.892 78.0328 218.386C78.0328 218.88 78.1324 219.313 78.3318 219.686C78.5398 220.059 78.8084 220.345 79.1378 220.544C79.4758 220.735 79.8311 220.83 80.2038 220.83C80.5851 220.83 80.9404 220.735 81.2698 220.544C81.5991 220.353 81.8634 220.076 82.0628 219.712C82.2708 219.339 82.3748 218.906 82.3748 218.412ZM92.2643 214.837L87.8703 225.367H86.3363L87.7923 221.883L84.9713 214.837H86.6223L88.6373 220.297L90.7303 214.837H92.2643Z" fill="#988D85"/>
<path d="M262.694 67.904C261.584 67.3493 261.03 66.4747 261.03 65.28C261.03 64.704 261.174 64.176 261.462 63.696C261.75 63.216 262.182 62.8373 262.758 62.56C263.334 62.272 264.038 62.128 264.87 62.128C265.691 62.128 266.39 62.272 266.966 62.56C267.552 62.8373 267.99 63.216 268.278 63.696C268.566 64.176 268.71 64.704 268.71 65.28C268.71 65.8773 268.555 66.4053 268.246 66.864C267.947 67.312 267.547 67.6587 267.046 67.904C267.654 68.128 268.134 68.496 268.486 69.008C268.838 69.5093 269.014 70.1013 269.014 70.784C269.014 71.4773 268.838 72.0907 268.486 72.624C268.134 73.1573 267.643 73.568 267.014 73.856C266.384 74.144 265.67 74.288 264.87 74.288C264.07 74.288 263.355 74.144 262.726 73.856C262.107 73.568 261.622 73.1573 261.27 72.624C260.918 72.0907 260.742 71.4773 260.742 70.784C260.742 70.0907 260.918 69.4933 261.27 68.992C261.622 68.4907 262.096 68.128 262.694 67.904ZM266.966 65.504C266.966 64.9067 266.779 64.448 266.406 64.128C266.032 63.808 265.52 63.648 264.87 63.648C264.23 63.648 263.723 63.808 263.35 64.128C262.976 64.448 262.79 64.912 262.79 65.52C262.79 66.0533 262.982 66.4907 263.366 66.832C263.76 67.1627 264.262 67.328 264.87 67.328C265.478 67.328 265.979 67.1573 266.374 66.816C266.768 66.4747 266.966 66.0373 266.966 65.504ZM264.87 68.704C264.166 68.704 263.59 68.88 263.142 69.232C262.704 69.5733 262.486 70.0693 262.486 70.72C262.486 71.328 262.699 71.824 263.126 72.208C263.552 72.5813 264.134 72.768 264.87 72.768C265.595 72.768 266.166 72.576 266.582 72.192C267.008 71.808 267.222 71.3173 267.222 70.72C267.222 70.08 267.003 69.584 266.566 69.232C266.139 68.88 265.574 68.704 264.87 68.704ZM277.201 65.04C277.083 64.5493 276.87 64.1813 276.561 63.936C276.251 63.6907 275.819 63.568 275.265 63.568C274.422 63.568 273.793 63.8933 273.377 64.544C272.961 65.184 272.742 66.2507 272.721 67.744C272.998 67.2747 273.403 66.912 273.937 66.656C274.47 66.4 275.046 66.272 275.665 66.272C276.369 66.272 276.987 66.4267 277.521 66.736C278.065 67.0347 278.486 67.472 278.785 68.048C279.094 68.624 279.249 69.312 279.249 70.112C279.249 70.8587 279.099 71.5253 278.801 72.112C278.513 72.6987 278.081 73.1627 277.505 73.504C276.929 73.8347 276.235 74 275.425 74C274.326 74 273.462 73.76 272.833 73.28C272.214 72.7893 271.777 72.1013 271.521 71.216C271.275 70.3307 271.153 69.2267 271.153 67.904C271.153 64 272.529 62.048 275.281 62.048C276.347 62.048 277.185 62.336 277.793 62.912C278.411 63.488 278.774 64.1973 278.881 65.04H277.201ZM275.265 67.808C274.614 67.808 274.059 68.0053 273.601 68.4C273.153 68.784 272.929 69.344 272.929 70.08C272.929 70.816 273.137 71.4027 273.553 71.84C273.979 72.2667 274.571 72.48 275.329 72.48C276.001 72.48 276.529 72.272 276.913 71.856C277.307 71.44 277.505 70.8853 277.505 70.192C277.505 69.4667 277.313 68.8907 276.929 68.464C276.555 68.0267 276.001 67.808 275.265 67.808Z" fill="#302823"/>
<circle cx="270" cy="100" r="15" fill="#F8EFE5" fill-opacity="0.7" stroke="#BEC574" stroke-width="2"/>
<circle cx="270" cy="100" r="8" fill="#BEC574"/>
<path d="M262.874 123.965L259.884 129.724V133H258.402V129.724L255.399 123.965H257.05L259.143 128.398L261.236 123.965H262.874ZM267.157 133.117C266.481 133.117 265.87 132.965 265.324 132.662C264.778 132.35 264.349 131.917 264.037 131.362C263.725 130.799 263.569 130.149 263.569 129.412C263.569 128.684 263.729 128.038 264.05 127.475C264.37 126.912 264.808 126.478 265.363 126.175C265.917 125.872 266.537 125.72 267.222 125.72C267.906 125.72 268.526 125.872 269.081 126.175C269.635 126.478 270.073 126.912 270.394 127.475C270.714 128.038 270.875 128.684 270.875 129.412C270.875 130.14 270.71 130.786 270.381 131.349C270.051 131.912 269.601 132.35 269.029 132.662C268.465 132.965 267.841 133.117 267.157 133.117ZM267.157 131.83C267.538 131.83 267.893 131.739 268.223 131.557C268.561 131.375 268.834 131.102 269.042 130.738C269.25 130.374 269.354 129.932 269.354 129.412C269.354 128.892 269.254 128.454 269.055 128.099C268.855 127.735 268.591 127.462 268.262 127.28C267.932 127.098 267.577 127.007 267.196 127.007C266.814 127.007 266.459 127.098 266.13 127.28C265.809 127.462 265.553 127.735 265.363 128.099C265.172 128.454 265.077 128.892 265.077 129.412C265.077 130.183 265.272 130.781 265.662 131.206C266.06 131.622 266.559 131.83 267.157 131.83ZM278.827 125.837V133H277.345V132.155C277.111 132.45 276.803 132.684 276.422 132.857C276.049 133.022 275.65 133.104 275.226 133.104C274.662 133.104 274.155 132.987 273.705 132.753C273.263 132.519 272.912 132.172 272.652 131.713C272.4 131.254 272.275 130.699 272.275 130.049V125.837H273.744V129.828C273.744 130.469 273.904 130.963 274.225 131.31C274.545 131.648 274.983 131.817 275.538 131.817C276.092 131.817 276.53 131.648 276.851 131.31C277.18 130.963 277.345 130.469 277.345 129.828V125.837H278.827ZM282.264 126.877C282.481 126.513 282.767 126.231 283.122 126.032C283.486 125.824 283.915 125.72 284.409 125.72V127.254H284.032C283.451 127.254 283.009 127.401 282.706 127.696C282.411 127.991 282.264 128.502 282.264 129.23V133H280.782V125.837H282.264V126.877ZM252.55 143.046V147.011C252.55 147.28 252.611 147.475 252.732 147.596C252.862 147.709 253.079 147.765 253.382 147.765H254.292V149H253.122C252.455 149 251.944 148.844 251.588 148.532C251.233 148.22 251.055 147.713 251.055 147.011V143.046H250.21V141.837H251.055V140.056H252.55V141.837H254.292V143.046H252.55ZM255.164 145.386C255.164 144.667 255.311 144.03 255.606 143.475C255.909 142.92 256.317 142.491 256.828 142.188C257.348 141.876 257.92 141.72 258.544 141.72C259.107 141.72 259.597 141.833 260.013 142.058C260.438 142.275 260.776 142.548 261.027 142.877V141.837H262.522V149H261.027V147.934C260.776 148.272 260.433 148.554 260 148.779C259.567 149.004 259.073 149.117 258.518 149.117C257.903 149.117 257.339 148.961 256.828 148.649C256.317 148.328 255.909 147.886 255.606 147.323C255.311 146.751 255.164 146.105 255.164 145.386ZM261.027 145.412C261.027 144.918 260.923 144.489 260.715 144.125C260.516 143.761 260.251 143.484 259.922 143.293C259.593 143.102 259.237 143.007 258.856 143.007C258.475 143.007 258.119 143.102 257.79 143.293C257.461 143.475 257.192 143.748 256.984 144.112C256.785 144.467 256.685 144.892 256.685 145.386C256.685 145.88 256.785 146.313 256.984 146.686C257.192 147.059 257.461 147.345 257.79 147.544C258.128 147.735 258.483 147.83 258.856 147.83C259.237 147.83 259.593 147.735 259.922 147.544C260.251 147.353 260.516 147.076 260.715 146.712C260.923 146.339 261.027 145.906 261.027 145.412ZM265.951 142.877C266.167 142.513 266.453 142.231 266.809 142.032C267.173 141.824 267.602 141.72 268.096 141.72V143.254H267.719C267.138 143.254 266.696 143.401 266.393 143.696C266.098 143.991 265.951 144.502 265.951 145.23V149H264.469V141.837H265.951V142.877ZM272.344 141.72C272.899 141.72 273.388 141.833 273.813 142.058C274.246 142.275 274.584 142.548 274.827 142.877V141.837H276.322V149.117C276.322 149.776 276.183 150.361 275.906 150.872C275.629 151.392 275.226 151.799 274.697 152.094C274.177 152.389 273.553 152.536 272.825 152.536C271.854 152.536 271.048 152.306 270.407 151.847C269.766 151.396 269.402 150.781 269.315 150.001H270.784C270.897 150.374 271.135 150.673 271.499 150.898C271.872 151.132 272.314 151.249 272.825 151.249C273.423 151.249 273.904 151.067 274.268 150.703C274.641 150.339 274.827 149.81 274.827 149.117V147.921C274.576 148.259 274.233 148.545 273.8 148.779C273.375 149.004 272.89 149.117 272.344 149.117C271.72 149.117 271.148 148.961 270.628 148.649C270.117 148.328 269.709 147.886 269.406 147.323C269.111 146.751 268.964 146.105 268.964 145.386C268.964 144.667 269.111 144.03 269.406 143.475C269.709 142.92 270.117 142.491 270.628 142.188C271.148 141.876 271.72 141.72 272.344 141.72ZM274.827 145.412C274.827 144.918 274.723 144.489 274.515 144.125C274.316 143.761 274.051 143.484 273.722 143.293C273.393 143.102 273.037 143.007 272.656 143.007C272.275 143.007 271.919 143.102 271.59 143.293C271.261 143.475 270.992 143.748 270.784 144.112C270.585 144.467 270.485 144.892 270.485 145.386C270.485 145.88 270.585 146.313 270.784 146.686C270.992 147.059 271.261 147.345 271.59 147.544C271.928 147.735 272.283 147.83 272.656 147.83C273.037 147.83 273.393 147.735 273.722 147.544C274.051 147.353 274.316 147.076 274.515 146.712C274.723 146.339 274.827 145.906 274.827 145.412ZM284.833 145.243C284.833 145.512 284.816 145.754 284.781 145.971H279.308C279.352 146.543 279.564 147.002 279.945 147.349C280.327 147.696 280.795 147.869 281.349 147.869C282.147 147.869 282.71 147.535 283.039 146.868H284.638C284.422 147.527 284.027 148.068 283.455 148.493C282.892 148.909 282.19 149.117 281.349 149.117C280.665 149.117 280.049 148.965 279.503 148.662C278.966 148.35 278.541 147.917 278.229 147.362C277.926 146.799 277.774 146.149 277.774 145.412C277.774 144.675 277.922 144.03 278.216 143.475C278.52 142.912 278.94 142.478 279.477 142.175C280.023 141.872 280.647 141.72 281.349 141.72C282.025 141.72 282.628 141.867 283.156 142.162C283.685 142.457 284.097 142.873 284.391 143.41C284.686 143.939 284.833 144.55 284.833 145.243ZM283.286 144.775C283.278 144.229 283.083 143.791 282.701 143.462C282.32 143.133 281.848 142.968 281.284 142.968C280.773 142.968 280.335 143.133 279.971 143.462C279.607 143.783 279.391 144.22 279.321 144.775H283.286ZM288.021 143.046V147.011C288.021 147.28 288.082 147.475 288.203 147.596C288.333 147.709 288.55 147.765 288.853 147.765H289.763V149H288.593C287.926 149 287.414 148.844 287.059 148.532C286.704 148.22 286.526 147.713 286.526 147.011V143.046H285.681V141.837H286.526V140.056H288.021V141.837H289.763V143.046H288.021Z" fill="#988D85"/>
<circle cx="334.5" cy="34" r="5" fill="#83AC52"/>
<path d="M327.783 56.091C326.942 56.091 326.167 55.896 325.456 55.506C324.754 55.1073 324.195 54.557 323.779 53.855C323.372 53.1443 323.168 52.347 323.168 51.463C323.168 50.579 323.372 49.786 323.779 49.084C324.195 48.382 324.754 47.836 325.456 47.446C326.167 47.0473 326.942 46.848 327.783 46.848C328.632 46.848 329.408 47.0473 330.11 47.446C330.821 47.836 331.38 48.382 331.787 49.084C332.194 49.786 332.398 50.579 332.398 51.463C332.398 52.347 332.194 53.1443 331.787 53.855C331.38 54.557 330.821 55.1073 330.11 55.506C329.408 55.896 328.632 56.091 327.783 56.091ZM327.783 54.804C328.381 54.804 328.914 54.6697 329.382 54.401C329.85 54.1237 330.214 53.7337 330.474 53.231C330.743 52.7197 330.877 52.1303 330.877 51.463C330.877 50.7957 330.743 50.2107 330.474 49.708C330.214 49.2053 329.85 48.8197 329.382 48.551C328.914 48.2823 328.381 48.148 327.783 48.148C327.185 48.148 326.652 48.2823 326.184 48.551C325.716 48.8197 325.348 49.2053 325.079 49.708C324.819 50.2107 324.689 50.7957 324.689 51.463C324.689 52.1303 324.819 52.7197 325.079 53.231C325.348 53.7337 325.716 54.1237 326.184 54.401C326.652 54.6697 327.185 54.804 327.783 54.804ZM340.343 48.837V56H338.861V55.155C338.627 55.4497 338.32 55.6837 337.938 55.857C337.566 56.0217 337.167 56.104 336.742 56.104C336.179 56.104 335.672 55.987 335.221 55.753C334.779 55.519 334.428 55.1723 334.168 54.713C333.917 54.2537 333.791 53.699 333.791 53.049V48.837H335.26V52.828C335.26 53.4693 335.421 53.9633 335.741 54.31C336.062 54.648 336.5 54.817 337.054 54.817C337.609 54.817 338.047 54.648 338.367 54.31C338.697 53.9633 338.861 53.4693 338.861 52.828V48.837H340.343ZM343.781 49.877C343.997 49.513 344.283 49.2313 344.639 49.032C345.003 48.824 345.432 48.72 345.926 48.72V50.254H345.549C344.968 50.254 344.526 50.4013 344.223 50.696C343.928 50.9907 343.781 51.502 343.781 52.23V56H342.299V48.837H343.781V49.877ZM324.29 64.837V72H322.808V71.155C322.574 71.4497 322.266 71.6837 321.885 71.857C321.512 72.0217 321.114 72.104 320.689 72.104C320.126 72.104 319.619 71.987 319.168 71.753C318.726 71.519 318.375 71.1723 318.115 70.713C317.864 70.2537 317.738 69.699 317.738 69.049V64.837H319.207V68.828C319.207 69.4693 319.367 69.9633 319.688 70.31C320.009 70.648 320.446 70.817 321.001 70.817C321.556 70.817 321.993 70.648 322.314 70.31C322.643 69.9633 322.808 69.4693 322.808 68.828V64.837H324.29ZM328.846 72.117C328.282 72.117 327.775 72.0173 327.325 71.818C326.883 71.61 326.532 71.3327 326.272 70.986C326.012 70.6307 325.873 70.2363 325.856 69.803H327.39C327.416 70.1063 327.559 70.362 327.819 70.57C328.087 70.7693 328.421 70.869 328.82 70.869C329.236 70.869 329.556 70.791 329.782 70.635C330.016 70.4703 330.133 70.2623 330.133 70.011C330.133 69.7423 330.003 69.543 329.743 69.413C329.491 69.283 329.088 69.14 328.534 68.984C327.996 68.8367 327.559 68.6937 327.221 68.555C326.883 68.4163 326.588 68.204 326.337 67.918C326.094 67.632 325.973 67.255 325.973 66.787C325.973 66.4057 326.085 66.059 326.311 65.747C326.536 65.4263 326.857 65.175 327.273 64.993C327.697 64.811 328.183 64.72 328.729 64.72C329.543 64.72 330.198 64.928 330.692 65.344C331.194 65.7513 331.463 66.3103 331.498 67.021H330.016C329.99 66.7003 329.86 66.4447 329.626 66.254C329.392 66.0633 329.075 65.968 328.677 65.968C328.287 65.968 327.988 66.0417 327.78 66.189C327.572 66.3363 327.468 66.5313 327.468 66.774C327.468 66.9647 327.537 67.125 327.676 67.255C327.814 67.385 327.983 67.489 328.183 67.567C328.382 67.6363 328.677 67.7273 329.067 67.84C329.587 67.9787 330.011 68.1217 330.341 68.269C330.679 68.4077 330.969 68.6157 331.212 68.893C331.454 69.1703 331.58 69.5387 331.589 69.998C331.589 70.4053 331.476 70.7693 331.251 71.09C331.025 71.4107 330.705 71.662 330.289 71.844C329.881 72.026 329.4 72.117 328.846 72.117ZM339.755 68.243C339.755 68.5117 339.738 68.7543 339.703 68.971H334.23C334.273 69.543 334.486 70.0023 334.867 70.349C335.248 70.6957 335.716 70.869 336.271 70.869C337.068 70.869 337.632 70.5353 337.961 69.868H339.56C339.343 70.5267 338.949 71.0683 338.377 71.493C337.814 71.909 337.112 72.117 336.271 72.117C335.586 72.117 334.971 71.9653 334.425 71.662C333.888 71.35 333.463 70.9167 333.151 70.362C332.848 69.7987 332.696 69.1487 332.696 68.412C332.696 67.6753 332.843 67.0297 333.138 66.475C333.441 65.9117 333.862 65.4783 334.399 65.175C334.945 64.8717 335.569 64.72 336.271 64.72C336.947 64.72 337.549 64.8673 338.078 65.162C338.607 65.4567 339.018 65.8727 339.313 66.41C339.608 66.9387 339.755 67.5497 339.755 68.243ZM338.208 67.775C338.199 67.229 338.004 66.7913 337.623 66.462C337.242 66.1327 336.769 65.968 336.206 65.968C335.695 65.968 335.257 66.1327 334.893 66.462C334.529 66.7827 334.312 67.2203 334.243 67.775H338.208ZM342.695 65.877C342.912 65.513 343.198 65.2313 343.553 65.032C343.917 64.824 344.346 64.72 344.84 64.72V66.254H344.463C343.883 66.254 343.441 66.4013 343.137 66.696C342.843 66.9907 342.695 67.502 342.695 68.23V72H341.213V64.837H342.695V65.877ZM348.803 72.117C348.239 72.117 347.732 72.0173 347.282 71.818C346.84 71.61 346.489 71.3327 346.229 70.986C345.969 70.6307 345.83 70.2363 345.813 69.803H347.347C347.373 70.1063 347.516 70.362 347.776 70.57C348.044 70.7693 348.378 70.869 348.777 70.869C349.193 70.869 349.513 70.791 349.739 70.635C349.973 70.4703 350.09 70.2623 350.09 70.011C350.09 69.7423 349.96 69.543 349.7 69.413C349.448 69.283 349.045 69.14 348.491 68.984C347.953 68.8367 347.516 68.6937 347.178 68.555C346.84 68.4163 346.545 68.204 346.294 67.918C346.051 67.632 345.93 67.255 345.93 66.787C345.93 66.4057 346.042 66.059 346.268 65.747C346.493 65.4263 346.814 65.175 347.23 64.993C347.654 64.811 348.14 64.72 348.686 64.72C349.5 64.72 350.155 64.928 350.649 65.344C351.151 65.7513 351.42 66.3103 351.455 67.021H349.973C349.947 66.7003 349.817 66.4447 349.583 66.254C349.349 66.0633 349.032 65.968 348.634 65.968C348.244 65.968 347.945 66.0417 347.737 66.189C347.529 66.3363 347.425 66.5313 347.425 66.774C347.425 66.9647 347.494 67.125 347.633 67.255C347.771 67.385 347.94 67.489 348.14 67.567C348.339 67.6363 348.634 67.7273 349.024 67.84C349.544 67.9787 349.968 68.1217 350.298 68.269C350.636 68.4077 350.926 68.6157 351.169 68.893C351.411 69.1703 351.537 69.5387 351.546 69.998C351.546 70.4053 351.433 70.7693 351.208 71.09C350.982 71.4107 350.662 71.662 350.246 71.844C349.838 72.026 349.357 72.117 348.803 72.117Z" fill="#988D85"/>
<defs>
<linearGradient id="paint0_linear_116_7117" x1="270" y1="1" x2="270" y2="234" gradientUnits="userSpaceOnUse">
<stop stop-color="#F5EADE" stop-opacity="0"/>
<stop offset="0.0989583" stop-color="#F1E5DA"/>
<stop offset="0.895833" stop-color="#F1E5DA"/>
<stop offset="1" stop-color="#F5EADE" stop-opacity="0"/>
</linearGradient>
<linearGradient id="paint1_linear_116_7117" x1="2" y1="166.59" x2="335" y2="166.59" gradientUnits="userSpaceOnUse">
<stop stop-color="#CC5D45"/>
<stop offset="0.505208" stop-color="#EED863"/>
<stop offset="1" stop-color="#8BB669"/>
</linearGradient>
</defs>
</svg>
